<svg width="500" height="500" viewBox="0 0 500 500" fill="none" xmlns="http://www.w3.org/2000/svg">
<path d="M250 488.56C381.45 488.56 488.01 425.168 488.01 346.97C488.01 268.772 381.45 205.38 250 205.38C118.551 205.38 11.9902 268.772 11.9902 346.97C11.9902 425.168 118.551 488.56 250 488.56Z" fill="#F5F5F5"/>
<path d="M378.46 339.15L456.92 293.89C460.02 292.11 460.02 289.21 456.92 287.42L343.7 221.92C341.962 221.037 340.039 220.577 338.09 220.577C336.14 220.577 334.218 221.037 332.48 221.92L254 267.18C250.9 268.97 250.9 271.87 254 273.65L367.22 339.15C368.961 340.036 370.886 340.498 372.84 340.498C374.793 340.498 376.719 340.036 378.46 339.15Z" fill="#E0E0E0"/>
<path d="M178.79 449.6L61.2198 381.82C57.9098 379.91 57.9098 376.82 61.2198 374.9L224.79 280.45C226.649 279.507 228.705 279.015 230.79 279.015C232.875 279.015 234.93 279.507 236.79 280.45L354.36 348.23C357.67 350.14 357.67 353.23 354.36 355.15L190.78 449.6C188.922 450.542 186.868 451.033 184.785 451.033C182.702 451.033 180.648 450.542 178.79 449.6Z" fill="#E0E0E0"/>
<path d="M90.4202 445.9C108.745 445.9 123.6 437.322 123.6 426.74C123.6 416.158 108.745 407.58 90.4202 407.58C72.0954 407.58 57.2402 416.158 57.2402 426.74C57.2402 437.322 72.0954 445.9 90.4202 445.9Z" fill="#E0E0E0"/>
<path d="M242.54 438.81L242.65 438.68L248.57 432.18V432.13C248.601 432.088 248.638 432.051 248.68 432.02L248.74 431.95C249.59 431.14 250.93 431.07 252.44 431.95C253.787 432.825 254.909 434.006 255.716 435.396C256.522 436.786 256.989 438.346 257.08 439.95C257.08 441.67 256.38 442.79 255.29 443.14H255.22L254.89 443.21H254.81L246.24 445.08C245.717 445.167 245.181 445.053 244.74 444.76C243.969 444.256 243.328 443.578 242.867 442.781C242.407 441.984 242.141 441.089 242.09 440.17C242.086 439.679 242.244 439.201 242.54 438.81Z" fill="#E0E0E0"/>
<path d="M381.101 378.94L256.331 451.05L239.051 454.57C238.952 454.589 238.85 454.58 238.757 454.544C238.663 454.508 238.582 454.446 238.522 454.365C238.462 454.285 238.427 454.189 238.419 454.089C238.412 453.989 238.433 453.888 238.481 453.8L243.891 443.87L368.671 371.75C372.081 369.78 383.771 377.4 381.101 378.94Z" fill="#E0E0E0"/>
<path d="M310.101 437.84C311.351 441.24 314.981 443.36 321.041 444.15L429.121 381.21L440.341 369.84C440.479 369.701 440.566 369.52 440.589 369.326C440.611 369.131 440.567 368.935 440.465 368.768C440.362 368.602 440.206 368.475 440.022 368.408C439.838 368.341 439.636 368.338 439.451 368.4L418.791 375.24L310.101 437.84Z" fill="#E0E0E0"/>
<path d="M440.75 290.74L371.16 330.04L264.29 268.71L333.87 229.41L440.75 290.74Z" fill="#0F47AC"/>
<path opacity="0.6" d="M440.75 290.74L371.16 330.04L264.29 268.71L333.87 229.41L440.75 290.74Z" fill="black"/>
<path d="M370.401 327.17L437.651 289C435.981 284.26 436.101 282.82 438.001 276.51L371.161 314.33C371.161 314.33 369.941 314.2 370.401 327.17Z" fill="#F5F5F5"/>
<path d="M374.42 309.11C372.635 310.264 371.147 311.824 370.08 313.663C369.013 315.502 368.396 317.567 368.28 319.69V328C368.28 331.89 371.03 333.47 374.42 331.53L440.74 293.85V290.79L375.26 327.79C373.26 328.95 371.57 328.01 371.58 325.67L371.63 318.31C371.704 317.035 372.078 315.796 372.721 314.692C373.364 313.589 374.258 312.653 375.33 311.96L440.73 274.96V271.49L374.42 309.11Z" fill="#0F47AC"/>
<path opacity="0.5" d="M374.42 309.11C372.635 310.264 371.147 311.824 370.08 313.663C369.013 315.502 368.396 317.567 368.28 319.69V328C368.28 331.89 371.03 333.47 374.42 331.53L440.74 293.85V290.79L375.26 327.79C373.26 328.95 371.57 328.01 371.58 325.67L371.63 318.31C371.704 317.035 372.078 315.796 372.721 314.692C373.364 313.589 374.258 312.653 375.33 311.96L440.73 274.96V271.49L374.42 309.11Z" fill="black"/>
<path d="M440.74 271.44L333.87 210.11L267.56 247.78C265.774 248.934 264.285 250.494 263.216 252.332C262.148 254.171 261.529 256.237 261.41 258.36V266.63C261.41 268.57 262.09 269.94 263.21 270.58L370.08 331.9C368.96 331.26 368.28 329.9 368.28 327.96V319.68C368.398 317.558 369.016 315.493 370.083 313.655C371.15 311.816 372.636 310.256 374.42 309.1L440.74 271.44Z" fill="#0F47AC"/>
<path opacity="0.35" d="M440.74 271.44L333.87 210.11L267.56 247.78C265.774 248.934 264.285 250.494 263.216 252.332C262.148 254.171 261.529 256.237 261.41 258.36V266.63C261.41 268.57 262.09 269.94 263.21 270.58L370.08 331.9C368.96 331.26 368.28 329.9 368.28 327.96V319.68C368.398 317.558 369.016 315.493 370.083 313.655C371.15 311.816 372.636 310.256 374.42 309.1L440.74 271.44Z" fill="black"/>
<path d="M370.07 313.66C368.97 315.475 368.351 317.54 368.27 319.66V328C368.27 329.94 368.95 331.3 370.07 331.94L263.21 270.58C262.09 269.94 261.41 268.58 261.41 266.63V258.36C261.491 256.24 262.11 254.175 263.21 252.36L370.07 313.66Z" fill="#0F47AC"/>
<path opacity="0.45" d="M370.07 313.66C368.97 315.475 368.351 317.54 368.27 319.66V328C368.27 329.94 368.95 331.3 370.07 331.94L263.21 270.58C262.09 269.94 261.41 268.58 261.41 266.63V258.36C261.491 256.24 262.11 254.175 263.21 252.36L370.07 313.66Z" fill="black"/>
<path d="M277.65 260.54C275.65 269.19 275.65 272.54 277.65 278.91L282.73 281.85C280.73 275.51 280.73 272.13 282.73 263.48L277.65 260.54Z" fill="#0F47AC"/>
<path d="M347.74 300.82C345.74 309.47 345.74 312.74 347.74 319.08L352.83 322.02C350.83 315.67 350.83 312.4 352.83 303.76L347.74 300.82Z" fill="#0F47AC"/>
<path d="M454.79 270.41L385.2 309.71L278.33 248.38L347.91 209.08L454.79 270.41Z" fill="#0F47AC"/>
<path opacity="0.4" d="M454.79 270.41L385.2 309.71L278.33 248.38L347.91 209.08L454.79 270.41Z" fill="black"/>
<path d="M384.44 306.83L451.69 268.63C450.02 263.89 450.14 261.77 452.03 255.46L385.2 293.27C385.2 293.27 384 293.86 384.44 306.83Z" fill="#F5F5F5"/>
<path d="M388.461 288.09C386.675 289.244 385.187 290.805 384.118 292.643C383.049 294.482 382.43 296.547 382.311 298.67V307.62C382.311 311.51 385.061 313.09 388.461 311.14L454.781 273.47V270.41L389.301 307.41C387.301 308.58 385.611 307.63 385.611 305.3L385.671 297.3C385.743 296.026 386.114 294.787 386.756 293.683C387.397 292.58 388.289 291.643 389.361 290.95L454.771 253.95V250.48L388.461 288.09Z" fill="#0F47AC"/>
<path opacity="0.25" d="M388.461 288.09C386.675 289.244 385.187 290.805 384.118 292.643C383.049 294.482 382.43 296.547 382.311 298.67V307.62C382.311 311.51 385.061 313.09 388.461 311.14L454.781 273.47V270.41L389.301 307.41C387.301 308.58 385.611 307.63 385.611 305.3L385.671 297.3C385.743 296.026 386.114 294.787 386.756 293.683C387.397 292.58 388.289 291.643 389.361 290.95L454.771 253.95V250.48L388.461 288.09Z" fill="black"/>
<path d="M454.78 250.43L347.91 189.1L281.59 226.77C279.804 227.924 278.317 229.484 277.25 231.323C276.183 233.162 275.566 235.227 275.45 237.35V246.35C275.45 248.29 276.13 249.65 277.25 250.29L384.12 311.62C383 310.98 382.32 309.62 382.32 307.67V298.72C382.436 296.597 383.053 294.532 384.12 292.693C385.187 290.854 386.674 289.294 388.46 288.14L454.78 250.43Z" fill="#0F47AC"/>
<path d="M384.11 292.65C383.008 294.463 382.388 296.529 382.31 298.65V307.6C382.31 309.54 382.99 310.91 384.11 311.55L277.25 250.24C276.13 249.6 275.45 248.24 275.45 246.3V237.3C275.528 235.179 276.148 233.113 277.25 231.3L384.11 292.65Z" fill="#0F47AC"/>
<path opacity="0.15" d="M384.11 292.65C383.008 294.463 382.388 296.529 382.31 298.65V307.6C382.31 309.54 382.99 310.91 384.11 311.55L277.25 250.24C276.13 249.6 275.45 248.24 275.45 246.3V237.3C275.528 235.179 276.148 233.113 277.25 231.3L384.11 292.65Z" fill="black"/>
<path d="M291.68 239.52C289.68 248.17 289.68 252.24 291.68 258.58L296.77 261.52C294.77 255.17 294.77 251.11 296.77 242.46L291.68 239.52Z" fill="#0F47AC"/>
<path d="M361.78 279.85C359.78 288.5 359.78 292.42 361.78 298.76L366.87 301.7C364.87 295.36 364.87 291.41 366.87 282.76L361.78 279.85Z" fill="#0F47AC"/>
<g opacity="0.4">
<path d="M291.68 239.52C289.68 248.17 289.68 252.24 291.68 258.58L296.77 261.52C294.77 255.17 294.77 251.11 296.77 242.46L291.68 239.52Z" fill="white"/>
<path d="M361.779 279.85C359.779 288.5 359.779 292.42 361.779 298.76L366.869 301.7C364.869 295.36 364.869 291.41 366.869 282.76L361.779 279.85Z" fill="white"/>
</g>
<path d="M78.5 378.41L186.59 439.82L343.37 349.82L235.29 288.41L78.5 378.41Z" fill="#0F47AC"/>
<path opacity="0.4" d="M78.5 378.41L186.59 439.82L343.37 349.82L235.29 288.41L78.5 378.41Z" fill="black"/>
<path d="M187.4 436.75L81.8104 376.51C83.6004 371.44 83.4604 369.17 81.4404 362.43L186.59 422.26C186.59 422.26 187.89 422.89 187.4 436.75Z" fill="#F5F5F5"/>
<path d="M183.1 416.72C185.009 417.952 186.599 419.618 187.741 421.582C188.883 423.546 189.544 425.752 189.67 428.02V437.58C189.67 441.75 186.73 443.43 183.1 441.35L78.5098 381.68V378.41L182.21 437.32C184.38 438.57 186.14 437.56 186.14 435.06L186.08 426.47C186.004 425.109 185.607 423.786 184.922 422.608C184.238 421.43 183.284 420.43 182.14 419.69L78.5098 360.75V357.05L183.1 416.72Z" fill="#0F47AC"/>
<path opacity="0.3" d="M183.1 416.72C185.009 417.952 186.599 419.618 187.741 421.582C188.883 423.546 189.544 425.752 189.67 428.02V437.58C189.67 441.75 186.73 443.43 183.1 441.35L78.5098 381.68V378.41L182.21 437.32C184.38 438.57 186.14 437.56 186.14 435.06L186.08 426.47C186.004 425.109 185.607 423.786 184.922 422.608C184.238 421.43 183.284 420.43 182.14 419.69L78.5098 360.75V357.05L183.1 416.72Z" fill="black"/>
<path d="M78.5098 357.05L235.29 267.05L339.88 326.72C341.789 327.952 343.379 329.618 344.521 331.582C345.663 333.546 346.324 335.752 346.45 338.02V347.58C346.45 349.66 345.72 351.12 344.53 351.8L187.74 441.8C188.93 441.12 189.66 439.65 189.66 437.58V428C189.534 425.733 188.874 423.528 187.734 421.564C186.594 419.6 185.006 417.934 183.1 416.7L78.5098 357.05Z" fill="#0F47AC"/>
<path opacity="0.2" d="M78.5098 357.05L235.29 267.05L339.88 326.72C341.789 327.952 343.379 329.618 344.521 331.582C345.663 333.546 346.324 335.752 346.45 338.02V347.58C346.45 349.66 345.72 351.12 344.53 351.8L187.74 441.8C188.93 441.12 189.66 439.65 189.66 437.58V428C189.534 425.733 188.874 423.528 187.734 421.564C186.594 419.6 185.006 417.934 183.1 416.7L78.5098 357.05Z" fill="black"/>
<path d="M187.75 421.59C188.93 423.534 189.591 425.748 189.67 428.02V437.59C189.67 439.66 188.94 441.13 187.75 441.81L344.54 351.81C345.73 351.13 346.46 349.67 346.46 347.59V338C346.377 335.728 345.716 333.515 344.54 331.57L187.75 421.59Z" fill="#0F47AC"/>
<path d="M187.75 421.59C188.932 423.533 189.593 425.747 189.67 428.02V437.59C189.67 439.66 188.94 441.12 187.75 441.81L344.53 351.81C345.73 351.13 346.45 349.66 346.46 347.59V338C346.383 335.727 345.722 333.513 344.54 331.57L187.75 421.59Z" fill="#0F47AC"/>
<path d="M329.1 340.36C331.23 349.6 331.2 353.94 329.1 360.72L323.66 363.86C325.76 357.08 325.79 352.74 323.66 343.5L329.1 340.36Z" fill="#0F47AC"/>
<path d="M211.61 407.89C213.74 417.13 213.71 421.34 211.61 428.12L206.18 431.23C208.27 424.45 208.3 420.23 206.18 411.01L211.61 407.89Z" fill="#0F47AC"/>
<g opacity="0.4">
<path d="M329.1 340.36C331.23 349.6 331.2 353.94 329.1 360.72L323.66 363.86C325.76 357.08 325.79 352.74 323.66 343.5L329.1 340.36Z" fill="white"/>
<path d="M211.61 407.89C213.74 417.13 213.71 421.34 211.61 428.12L206.18 431.23C208.27 424.45 208.3 420.23 206.18 411.01L211.61 407.89Z" fill="white"/>
</g>
<path d="M64.6504 357.64L172.74 419.05L329.52 329.05L221.44 267.64L64.6504 357.64Z" fill="#0F47AC"/>
<path opacity="0.2" d="M64.6504 357.64L172.74 419.05L329.52 329.05L221.44 267.64L64.6504 357.64Z" fill="white"/>
<path d="M173.551 416L68.0009 355.74C69.7909 350.67 69.6509 349.13 67.6309 342.39L172.781 402.21C172.781 402.21 174.001 402.12 173.551 416Z" fill="#F5F5F5"/>
<path d="M169.25 396.68C171.159 397.912 172.749 399.578 173.891 401.542C175.033 403.506 175.694 405.712 175.82 407.98V416.81C175.82 420.98 172.88 422.66 169.25 420.58L64.6602 360.91V357.64L168.36 416.55C170.53 417.8 172.29 416.79 172.29 414.29L172.23 406.43C172.154 405.068 171.757 403.743 171.073 402.564C170.388 401.384 169.435 400.382 168.29 399.64L64.6602 340.71V337L169.25 396.68Z" fill="#0F47AC"/>
<path opacity="0.4" d="M169.25 396.68C171.159 397.912 172.749 399.578 173.891 401.542C175.033 403.506 175.694 405.712 175.82 407.98V416.81C175.82 420.98 172.88 422.66 169.25 420.58L64.6602 360.91V357.64L168.36 416.55C170.53 417.8 172.29 416.79 172.29 414.29L172.23 406.43C172.154 405.068 171.757 403.743 171.073 402.564C170.388 401.384 169.435 400.382 168.29 399.64L64.6602 340.71V337L169.25 396.68Z" fill="white"/>
<path d="M64.6504 337L221.44 247L326 306.68C327.916 307.912 329.513 309.579 330.66 311.547C331.808 313.515 332.472 315.726 332.6 318V326.83C332.6 328.91 331.87 330.37 330.67 331.05L173.89 421C175.08 420.31 175.81 418.85 175.81 416.78V408C175.685 405.731 175.025 403.525 173.885 401.559C172.745 399.594 171.157 397.926 169.25 396.69L64.6504 337Z" fill="#0F47AC"/>
<path opacity="0.85" d="M64.6504 337L221.44 247L326 306.68C327.916 307.912 329.513 309.579 330.66 311.547C331.808 313.515 332.472 315.726 332.6 318V326.83C332.6 328.91 331.87 330.37 330.67 331.05L173.89 421C175.08 420.31 175.81 418.85 175.81 416.78V408C175.685 405.731 175.025 403.525 173.885 401.559C172.745 399.594 171.157 397.926 169.25 396.69L64.6504 337Z" fill="white"/>
<path d="M173.9 401.55C175.082 403.493 175.744 405.707 175.82 407.98V416.82C175.82 418.89 175.09 420.35 173.9 421.04L330.68 331.04C331.88 330.36 332.61 328.9 332.61 326.82V318C332.53 315.727 331.865 313.512 330.68 311.57L173.9 401.55Z" fill="#0F47AC"/>
<path opacity="0.6" d="M173.9 401.55C175.082 403.493 175.744 405.707 175.82 407.98V416.82C175.82 418.89 175.09 420.35 173.9 421.04L330.68 331.04C331.88 330.36 332.61 328.9 332.61 326.82V318C332.53 315.727 331.865 313.512 330.68 311.57L173.9 401.55Z" fill="white"/>
<path d="M315.251 320.32C317.381 329.56 317.351 333.17 315.251 339.95L309.811 343.09C311.911 336.31 311.941 332.7 309.811 323.45L315.251 320.32Z" fill="white"/>
<path d="M197.76 387.82C199.89 397.06 199.86 400.56 197.76 407.34L192.32 410.47C194.42 403.7 194.45 400.2 192.32 390.96L197.76 387.82Z" fill="white"/>
<path d="M307.85 195.93V236.63C307.85 242.49 313 248.35 323.22 252.82C343.7 261.82 376.91 261.82 397.39 252.82C407.64 248.33 412.75 242.46 412.75 236.58V195.93C412.87 189.93 407.75 184.03 397.4 179.49C376.92 170.49 343.71 170.49 323.23 179.49C312.85 184 307.74 190 307.86 195.93H307.85Z" fill="#37474F"/>
<path d="M307.86 195.93C307.74 189.93 312.86 184.03 323.22 179.49C343.7 170.49 376.91 170.49 397.39 179.49C407.75 184.03 412.86 189.98 412.74 195.93V214.52C412.74 209.91 408.65 206.61 396.54 211.07C376.69 218.38 365.54 230.45 345.3 236.42C328.56 241.35 313.73 239.42 307.84 233.29V195.93H307.86Z" fill="#263238"/>
<path d="M307.85 217.47V222.09C307.85 227.94 313 233.81 323.22 238.27C343.7 247.27 376.91 247.27 397.39 238.27C407.71 233.76 412.82 227.82 412.75 221.9V217.43C412.75 223.3 407.64 229.17 397.39 233.67C376.91 242.67 343.7 242.67 323.22 233.67C313 229.19 307.88 223.34 307.85 217.47Z" fill="#0F47AC"/>
<path d="M442.71 182.95L360.3 144.02L277.88 182.95V189.44L360.3 224.05L442.71 189.44V182.95Z" fill="#37474F"/>
<path opacity="0.2" d="M360.3 224.05V217.56L442.71 182.95V189.44L360.3 224.05Z" fill="#0F47AC"/>
<path opacity="0.2" d="M360.3 217.56L441.53 184.88L442.71 189.44V182.95L360.3 217.56Z" fill="#0F47AC"/>
<path d="M360.3 144.02L277.88 182.95L360.3 217.56L442.71 182.95L360.3 144.02Z" fill="#455A64"/>
<path d="M316.11 214.83C316.11 214.29 315.85 201.64 317.11 198.04C318.37 194.44 323.05 190.79 332.82 185.83C339.805 182.304 347.169 179.587 354.77 177.73L355.17 179.53C347.718 181.348 340.498 184.012 333.65 187.47C324.47 192.13 319.91 195.58 318.86 198.64C317.92 201.37 317.91 211.22 317.99 214.79L316.11 214.83Z" fill="#0F47AC"/>
<path opacity="0.8" d="M316.11 214.83C316.11 214.29 315.85 201.64 317.11 198.04C318.37 194.44 323.05 190.79 332.82 185.83C339.805 182.304 347.169 179.587 354.77 177.73L355.17 179.53C347.718 181.348 340.498 184.012 333.65 187.47C324.47 192.13 319.91 195.58 318.86 198.64C317.92 201.37 317.91 211.22 317.99 214.79L316.11 214.83Z" fill="white"/>
<path d="M326.82 253.52C326.82 244.05 325.25 227.09 320.28 222.16H313.73C308.73 227.09 307.2 244.05 307.2 253.52C307.2 254.97 308.15 256.42 310.07 257.52C312.219 258.611 314.595 259.18 317.005 259.18C319.415 259.18 321.791 258.611 323.94 257.52C325.86 256.41 326.82 254.96 326.82 253.52Z" fill="#0F47AC"/>
<path opacity="0.5" d="M326.82 253.52C326.82 244.05 325.25 227.09 320.28 222.16H313.73C308.73 227.09 307.2 244.05 307.2 253.52C307.2 254.97 308.15 256.42 310.07 257.52C312.219 258.611 314.595 259.18 317.005 259.18C319.415 259.18 321.791 258.611 323.94 257.52C325.86 256.41 326.82 254.96 326.82 253.52Z" fill="white"/>
<path opacity="0.6" d="M313.729 222.16C313.336 222.566 312.981 223.008 312.669 223.48C313.919 224.8 315.839 225.14 317.749 225.29C319.659 225.44 321.649 226.99 322.499 234.76C323.349 242.53 324.999 252.45 321.919 255.46C318.839 258.47 311.969 258.46 308.359 256.2C308.863 256.723 309.439 257.171 310.069 257.53C312.218 258.621 314.594 259.19 317.004 259.19C319.414 259.19 321.79 258.621 323.939 257.53C325.859 256.42 326.819 254.97 326.819 253.53C326.819 244.06 325.249 227.1 320.279 222.17L313.729 222.16Z" fill="#0F47AC"/>
<path d="M321.92 218.71C321.92 219.684 321.631 220.635 321.09 221.444C320.549 222.254 319.78 222.884 318.881 223.256C317.981 223.629 316.991 223.725 316.037 223.535C315.082 223.344 314.205 222.875 313.518 222.185C312.83 221.496 312.362 220.619 312.173 219.664C311.985 218.709 312.084 217.719 312.457 216.82C312.831 215.921 313.464 215.154 314.274 214.614C315.084 214.075 316.037 213.788 317.01 213.79C317.656 213.79 318.295 213.917 318.891 214.165C319.488 214.412 320.029 214.775 320.486 215.232C320.942 215.689 321.303 216.231 321.549 216.828C321.795 217.425 321.921 218.064 321.92 218.71Z" fill="#0F47AC"/>
<path opacity="0.5" d="M321.92 218.71C321.92 219.684 321.631 220.635 321.09 221.444C320.549 222.254 319.78 222.884 318.881 223.256C317.981 223.629 316.991 223.725 316.037 223.535C315.082 223.344 314.205 222.875 313.518 222.185C312.83 221.496 312.362 220.619 312.173 219.664C311.985 218.709 312.084 217.719 312.457 216.82C312.831 215.921 313.464 215.154 314.274 214.614C315.084 214.075 316.037 213.788 317.01 213.79C317.656 213.79 318.295 213.917 318.891 214.165C319.488 214.412 320.029 214.775 320.486 215.232C320.942 215.689 321.303 216.231 321.549 216.828C321.795 217.425 321.921 218.064 321.92 218.71Z" fill="white"/>
<path opacity="0.4" d="M319.86 214.72C320.22 215.211 320.475 215.771 320.611 216.365C320.746 216.958 320.758 217.574 320.647 218.172C320.535 218.771 320.302 219.34 319.962 219.846C319.622 220.351 319.182 220.781 318.67 221.11C317.683 221.757 316.493 222.019 315.326 221.845C314.159 221.672 313.096 221.076 312.34 220.17C312.571 220.912 312.976 221.589 313.521 222.144C314.066 222.699 314.735 223.116 315.473 223.362C316.211 223.607 316.997 223.673 317.766 223.554C318.534 223.435 319.263 223.136 319.893 222.679C320.523 222.223 321.035 221.623 321.387 220.93C321.739 220.236 321.921 219.469 321.918 218.691C321.914 217.913 321.726 217.147 321.368 216.457C321.01 215.766 320.493 215.171 319.86 214.72Z" fill="#0F47AC"/>
<path d="M353.67 175.38C353.726 174.799 353.936 174.243 354.276 173.769C354.617 173.295 355.077 172.919 355.61 172.68C357.062 171.945 358.667 171.563 360.295 171.563C361.923 171.563 363.527 171.945 364.98 172.68C365.513 172.919 365.973 173.295 366.314 173.769C366.654 174.243 366.863 174.799 366.92 175.38V177.55C366.864 178.132 366.656 178.688 366.315 179.162C365.974 179.637 365.513 180.012 364.98 180.25C363.527 180.985 361.923 181.367 360.295 181.367C358.667 181.367 357.062 180.985 355.61 180.25C355.077 180.012 354.616 179.637 354.275 179.162C353.934 178.688 353.725 178.132 353.67 177.55V175.38Z" fill="#263238"/>
<path d="M365 178.09C367.59 176.59 367.59 174.17 365 172.68C363.548 171.945 361.943 171.563 360.315 171.563C358.688 171.563 357.083 171.945 355.63 172.68C353.05 174.17 353.05 176.59 355.63 178.09C357.083 178.825 358.688 179.207 360.315 179.207C361.943 179.207 363.548 178.825 365 178.09Z" fill="#37474F"/>
<path d="M97.9399 373.09C103.8 372.44 114.01 371.49 122.49 383.35C132.15 396.84 128.12 416.35 118.49 425.98C106.35 437.98 84.8299 442.29 70.1099 432.86C53.8099 422.43 48.6299 398.29 56.4299 386C64.2299 373.71 79.5399 374.23 83.6699 375.21C89.8699 376.68 93.3899 373.6 97.9399 373.09Z" fill="#0F47AC"/>
<path opacity="0.1" d="M77.5503 428.51C93.9603 434.17 114.02 428.11 124.82 416.51C123.301 420.039 121.141 423.257 118.45 426C106.31 438 84.7903 442.31 70.0703 432.88C57.7403 425 51.8003 409.17 53.0003 396.64C53.0003 400.09 59.4903 422.3 77.5503 428.51Z" fill="black"/>
<g opacity="0.1">
<path d="M104.841 377.22C108.521 376.22 114.511 378.65 118.221 383.22C122.831 388.94 124.791 397.8 124.801 404.48C124.801 417.95 113.321 426.98 111.911 426.08C110.501 425.18 118.231 415.08 110.911 402.87C103.561 390.56 98.8006 378.79 104.841 377.22Z" fill="white"/>
</g>
<g opacity="0.1">
<path d="M108.09 378.84C112.09 379.48 117.56 384.84 119.44 388.93C121.32 393.02 121.26 396.07 120.76 396.68C119.86 397.76 110.84 391.52 107.76 388.56C103.37 384.35 101.59 377.81 108.09 378.84Z" fill="white"/>
</g>
<path opacity="0.2" d="M93.8302 385.32C95.5802 383.32 97.3602 382.21 98.8302 384.48C100.3 386.75 95.4902 391.48 89.2002 390.77C82.9102 390.06 80.2002 386.48 79.9502 384.48C79.9502 384.48 83.3902 388.31 87.5002 388.11C89.8698 387.942 92.1073 386.955 93.8302 385.32Z" fill="black"/>
<path d="M88.9001 389.23C88.0346 383.649 88.0043 377.97 88.8101 372.38C90.2201 364.23 94.1001 358.04 95.3001 357.22C97.2644 356.083 99.4441 355.368 101.7 355.12C104.78 354.63 108.8 356.12 107.99 357.43C107.18 358.74 102.9 360.43 98.3801 366.38C93.8601 372.33 90.3801 382.97 91.3801 388.81C91.0466 389.104 90.6379 389.298 90.1998 389.373C89.7617 389.447 89.3117 389.397 88.9001 389.23Z" fill="#37474F"/>
<path d="M95.5105 357.09L95.7805 356.92C97.624 355.994 99.613 355.392 101.66 355.14C103.93 354.78 106.66 355.48 107.66 356.41C107.95 356.82 107.37 357.53 104.66 358.41C102.01 359.272 99.1906 359.484 96.4405 359.03C95.2705 358.75 94.6205 357.77 95.5105 357.09Z" fill="#455A64"/>
<path opacity="0.1" d="M91.2504 378.86C92.4904 371.52 98.8603 364.49 103.45 361.08C101.56 362.643 99.8583 364.422 98.3803 366.38C93.8503 372.32 90.3803 382.97 91.3803 388.81C91.0488 389.1 90.6436 389.292 90.2095 389.367C89.7754 389.441 89.3293 389.393 88.9203 389.23C88.9203 389.23 88.5604 387.13 88.3604 384.04C89.0004 386.84 90.1004 385.63 91.2504 378.86Z" fill="black"/>
<path d="M88.3 376.91C85.8604 377.703 83.2558 377.843 80.7452 377.317C78.2346 376.79 75.9056 375.616 73.99 373.91C68.81 369.06 70.33 361.34 70.33 361.34C72.3892 360.606 74.5943 360.377 76.7605 360.671C78.9266 360.965 80.9907 361.774 82.78 363.03C87.19 366.21 89 373.47 88.3 376.91Z" fill="#0F47AC"/>
<path opacity="0.3" d="M88.3 376.91C85.8604 377.703 83.2558 377.843 80.7452 377.317C78.2346 376.79 75.9056 375.616 73.99 373.91C68.81 369.06 70.33 361.34 70.33 361.34C72.3892 360.606 74.5943 360.377 76.7605 360.671C78.9266 360.965 80.9907 361.774 82.78 363.03C87.19 366.21 89 373.47 88.3 376.91Z" fill="black"/>
<path d="M70.3301 361.37C72.3893 360.636 74.5944 360.407 76.7606 360.701C78.9267 360.995 80.9909 361.804 82.7801 363.06C87.1901 366.21 88.9601 373.47 88.3001 376.91C83.0001 366.77 70.3301 361.37 70.3301 361.37Z" fill="#0F47AC"/>
<path opacity="0.2" d="M70.3301 361.37C72.3893 360.636 74.5944 360.407 76.7606 360.701C78.9267 360.995 80.9909 361.804 82.7801 363.06C87.1901 366.21 88.9601 373.47 88.3001 376.91C83.0001 366.77 70.3301 361.37 70.3301 361.37Z" fill="black"/>
<path d="M369.1 364.59C369.192 366.194 369.66 367.753 370.466 369.143C371.272 370.533 372.394 371.713 373.74 372.59C374.523 373.108 375.474 373.309 376.4 373.15C376.252 373.305 376.084 373.44 375.9 373.55L377.01 372.91H377.08L377.24 372.8C377.314 372.745 377.385 372.685 377.45 372.62L377.57 372.5L377.68 372.37C377.838 372.159 377.966 371.926 378.06 371.68C378.091 371.605 378.118 371.528 378.14 371.45C378.149 371.414 378.149 371.376 378.14 371.34C378.165 371.276 378.181 371.208 378.19 371.14C378.281 370.76 378.325 370.371 378.32 369.98C378.229 368.377 377.762 366.818 376.958 365.428C376.154 364.039 375.034 362.858 373.69 361.98C373.066 361.585 372.348 361.364 371.61 361.34H371.32L371.05 361.39H370.89H370.8L370.61 361.47L370.43 361.56L369.43 362.11C369.588 362.029 369.756 361.969 369.93 361.93C369.317 362.675 369.019 363.629 369.1 364.59Z" fill="#0F47AC"/>
<path d="M249.229 431.6L255.759 443L256.869 442.36L375.869 373.61C376.053 373.5 376.222 373.365 376.369 373.21C376.981 372.487 377.289 371.555 377.23 370.61C377.137 369.006 376.669 367.447 375.863 366.057C375.057 364.667 373.936 363.487 372.589 362.61C371.967 362.222 371.253 362.005 370.519 361.98C370.321 361.979 370.123 361.999 369.929 362.04C369.756 362.079 369.588 362.139 369.429 362.22H369.35L249.229 431.6Z" fill="#F0F0F0"/>
<path d="M252.5 431.93C249.94 430.45 247.87 431.65 247.87 434.6C247.961 436.203 248.427 437.762 249.231 439.152C250.035 440.542 251.155 441.723 252.5 442.6C255.06 444.08 257.14 442.88 257.14 439.92C257.048 438.318 256.58 436.759 255.774 435.371C254.967 433.983 253.846 432.804 252.5 431.93Z" fill="#0F47AC"/>
<path d="M318.3 396.61L318.45 396.52C318.63 396.462 318.821 396.446 319.008 396.474C319.196 396.501 319.374 396.572 319.53 396.68C320.008 396.993 320.407 397.414 320.693 397.909C320.98 398.404 321.146 398.959 321.18 399.53C321.194 399.715 321.167 399.902 321.099 400.075C321.032 400.248 320.926 400.404 320.79 400.53L320.59 400.65L250.15 441.31L245.52 438.63L318.3 396.61Z" fill="#455A64"/>
<path d="M256.72 437.51L250.18 441.29L245.55 438.61L254.41 433.5C255.451 434.661 256.238 436.027 256.72 437.51Z" fill="#37474F"/>
<path d="M240.21 441.9L245.58 436L245.72 435.84C246.094 435.535 246.562 435.369 247.045 435.369C247.527 435.369 247.995 435.535 248.37 435.84C249.322 436.462 250.114 437.299 250.682 438.284C251.25 439.269 251.578 440.374 251.64 441.51C251.703 441.971 251.615 442.44 251.39 442.847C251.165 443.255 250.814 443.578 250.39 443.77L250.18 443.82L242.31 445.53C242.014 445.575 241.712 445.511 241.46 445.35C241.026 445.065 240.665 444.683 240.406 444.233C240.147 443.783 239.998 443.278 239.97 442.76C239.934 442.453 240.02 442.144 240.21 441.9Z" fill="#0F47AC"/>
<path opacity="0.1" d="M240.21 441.9L245.58 436L245.72 435.84C246.094 435.535 246.562 435.369 247.045 435.369C247.527 435.369 247.995 435.535 248.37 435.84C249.322 436.462 250.114 437.299 250.682 438.284C251.25 439.269 251.578 440.374 251.64 441.51C251.703 441.971 251.615 442.44 251.39 442.847C251.165 443.255 250.814 443.578 250.39 443.77L250.18 443.82L242.31 445.53C242.014 445.575 241.712 445.511 241.46 445.35C241.026 445.065 240.665 444.683 240.406 444.233C240.147 443.783 239.998 443.278 239.97 442.76C239.934 442.453 240.02 442.144 240.21 441.9Z" fill="black"/>
<path d="M239.91 442.76C239.939 443.278 240.09 443.781 240.35 444.23C240.611 444.678 240.974 445.059 241.41 445.34C241.658 445.502 241.957 445.566 242.25 445.52L246.25 444.66C246.87 444.52 247.25 443.93 247.25 442.99C247.206 442.161 246.968 441.355 246.555 440.635C246.141 439.916 245.564 439.304 244.87 438.85C244.598 438.635 244.261 438.518 243.915 438.518C243.568 438.518 243.232 438.635 242.96 438.85L242.85 438.97L240.19 441.89C240.086 442.008 240.008 442.146 239.96 442.296C239.911 442.446 239.894 442.603 239.91 442.76Z" fill="#0F47AC"/>
<path opacity="0.1" d="M241.4 441.89C240.58 441.42 239.91 441.8 239.91 442.75C239.938 443.268 240.087 443.773 240.346 444.223C240.605 444.673 240.966 445.055 241.4 445.34C242.23 445.81 242.89 445.43 242.89 444.48C242.863 443.962 242.714 443.457 242.455 443.007C242.196 442.557 241.835 442.174 241.4 441.89Z" fill="black"/>
<path d="M359.449 372.82C359.635 372.731 359.84 372.695 360.045 372.714C360.249 372.733 360.444 372.808 360.609 372.93C361.088 373.24 361.486 373.659 361.771 374.153C362.056 374.647 362.22 375.201 362.249 375.77C362.273 375.976 362.24 376.185 362.153 376.373C362.067 376.562 361.931 376.723 361.759 376.84L320.819 400.51C320.956 400.384 321.062 400.228 321.129 400.055C321.197 399.882 321.224 399.695 321.209 399.51C321.176 398.939 321.01 398.384 320.723 397.889C320.437 397.394 320.038 396.973 319.559 396.66C319.404 396.552 319.226 396.481 319.038 396.454C318.851 396.426 318.66 396.442 318.479 396.5L359.449 372.82Z" fill="#FAFAFA"/>
<path d="M358.999 373.88C359.033 374.448 359.199 375.001 359.484 375.494C359.768 375.987 360.164 376.407 360.639 376.72C360.804 376.839 360.997 376.912 361.199 376.931C361.402 376.951 361.605 376.916 361.789 376.83C361.96 376.715 362.096 376.555 362.182 376.368C362.268 376.181 362.302 375.975 362.279 375.77C362.25 375.201 362.086 374.647 361.801 374.153C361.515 373.659 361.118 373.24 360.639 372.93C360.482 372.792 360.286 372.707 360.077 372.686C359.869 372.666 359.659 372.711 359.478 372.816C359.297 372.921 359.153 373.08 359.068 373.271C358.982 373.462 358.958 373.675 358.999 373.88Z" fill="#F5F5F5"/>
<path d="M362.64 366.86H362.7H362.77L369.61 362.86L369.77 362.77C370.232 362.591 370.732 362.529 371.224 362.59C371.716 362.651 372.185 362.833 372.59 363.12C373.805 363.912 374.816 364.979 375.541 366.235C376.265 367.492 376.683 368.902 376.76 370.35C376.815 370.869 376.729 371.393 376.513 371.868C376.297 372.343 375.957 372.751 375.53 373.05L368.61 377.05C368.14 377.246 367.629 377.319 367.123 377.263C366.618 377.207 366.135 377.024 365.72 376.73C364.506 375.937 363.496 374.869 362.772 373.613C362.047 372.357 361.629 370.948 361.55 369.5C361.498 369.004 361.57 368.503 361.76 368.042C361.951 367.581 362.253 367.175 362.64 366.86Z" fill="#0F47AC"/>
<path opacity="0.05" d="M362.64 366.86H362.7H362.77L369.61 362.86L369.77 362.77C370.232 362.591 370.732 362.529 371.224 362.59C371.716 362.651 372.185 362.833 372.59 363.12C373.805 363.912 374.816 364.979 375.541 366.235C376.265 367.492 376.683 368.902 376.76 370.35C376.815 370.869 376.729 371.393 376.513 371.868C376.297 372.343 375.957 372.751 375.53 373.05L368.61 377.05C368.14 377.246 367.629 377.319 367.123 377.263C366.618 377.207 366.135 377.024 365.72 376.73C364.506 375.937 363.496 374.869 362.772 373.613C362.047 372.357 361.629 370.948 361.55 369.5C361.498 369.004 361.57 368.503 361.76 368.042C361.951 367.581 362.253 367.175 362.64 366.86Z" fill="black"/>
<path opacity="0.1" d="M365.67 367.1C363.37 365.77 361.5 366.84 361.5 369.5C361.579 370.948 361.998 372.357 362.722 373.613C363.447 374.869 364.456 375.936 365.67 376.73C367.97 378.06 369.84 376.98 369.84 374.32C369.761 372.873 369.342 371.466 368.618 370.212C367.893 368.957 366.883 367.891 365.67 367.1Z" fill="black"/>
<path d="M238 444.39L240.83 442.69C240.913 442.64 241.008 442.613 241.105 442.613C241.202 442.613 241.297 442.64 241.38 442.69C241.603 442.837 241.788 443.033 241.922 443.264C242.055 443.495 242.133 443.754 242.15 444.02C242.159 444.115 242.143 444.21 242.102 444.297C242.062 444.383 241.999 444.457 241.92 444.51L239.1 446.22C238.94 446.305 238.761 446.35 238.58 446.35C238.343 446.353 238.112 446.279 237.922 446.138C237.733 445.997 237.594 445.798 237.528 445.571C237.462 445.344 237.473 445.101 237.558 444.881C237.643 444.66 237.798 444.474 238 444.35V444.39Z" fill="#455A64"/>
<path d="M237.85 444.52L238 444.4C238.082 444.373 238.17 444.366 238.255 444.38C238.34 444.394 238.421 444.428 238.49 444.48C238.714 444.626 238.9 444.822 239.034 445.053C239.168 445.284 239.245 445.543 239.26 445.81C239.27 445.902 239.254 445.996 239.216 446.08C239.177 446.164 239.116 446.237 239.04 446.29H238.98H238.93C238.819 446.335 238.7 446.355 238.58 446.35C238.291 446.35 238.014 446.235 237.809 446.031C237.605 445.826 237.49 445.549 237.49 445.26C237.494 445.118 237.529 444.979 237.591 444.851C237.653 444.724 237.741 444.611 237.85 444.52Z" fill="#263238"/>
<path d="M419.59 367.56L438 364C438.118 363.975 438.24 363.988 438.35 364.038C438.46 364.087 438.551 364.17 438.611 364.274C438.671 364.378 438.696 364.499 438.684 364.618C438.671 364.738 438.621 364.851 438.54 364.94L426 379L419.59 367.56Z" fill="#FFA8A7"/>
<path d="M438.51 364.89C438.571 364.801 438.605 364.698 438.609 364.591C438.613 364.484 438.587 364.378 438.534 364.285C438.481 364.192 438.402 364.116 438.308 364.066C438.214 364.015 438.107 363.993 438 364L434.41 364.71C434.905 365.013 435.305 365.447 435.567 365.965C435.828 366.482 435.94 367.062 435.89 367.64V367.96L438.51 364.89Z" fill="#263238"/>
<path d="M335.69 430.75L337.19 429.89L339.01 428.89L426 379C426.609 376.975 426.427 374.795 425.49 372.9C424.19 369.98 421.66 367.68 419.56 367.54L332.56 417.36L329.09 419.36C331.46 418.21 338 429.55 335.69 430.75Z" fill="#455A64"/>
<path d="M341.42 427.48L344.78 425.55C345.78 425.02 345.2 422.55 344.04 420.07C342.51 416.73 339.49 413.49 338.18 414.18L335.7 415.6L334.83 416.13C336.14 415.43 339.16 418.67 340.69 422.02C341.8 424.43 342.36 426.78 341.52 427.41C341.509 427.428 341.495 427.444 341.478 427.456C341.46 427.468 341.441 427.476 341.42 427.48Z" fill="#EBEBEB"/>
<path d="M342.26 427C344.56 425.78 337.96 414.42 335.66 415.64L332.3 417.57C334.6 416.35 341.2 427.71 338.89 428.93L342.26 427Z" fill="#0F47AC"/>
<path d="M335.69 430.75L339.01 428.85C341.28 427.67 335.01 416.65 332.61 417.38L332.47 417.43L329.14 419.37C331.46 418.21 338 429.55 335.69 430.75Z" fill="#EBEBEB"/>
<path opacity="0.15" d="M438.59 364.27L438 364L424.66 371.3L333.89 423.3C333.76 423.1 333.65 423.08 333.57 423.22C335.57 426.28 337.01 430.13 335.72 430.8L337.22 429.94L339.04 428.94L426 379L438.47 364.88C438.547 364.801 438.599 364.701 438.621 364.593C438.642 364.485 438.632 364.372 438.59 364.27Z" fill="black"/>
<path d="M321.6 438.81L335.69 430.75C336.69 430.24 336.13 427.83 334.99 425.32C333.47 421.97 330.46 418.7 329.14 419.37L315 427.47C312.19 429.09 314.77 435.19 317.9 437.91C319.06 438.94 320.36 439.39 321.6 438.81Z" fill="#F28F8F"/>
<path opacity="0.1" d="M322.44 434.44C321.63 431.27 319.06 428.15 316.69 427.49C316.342 427.361 315.968 427.318 315.6 427.367C315.232 427.416 314.882 427.554 314.58 427.77C312.46 429.77 314.93 435.33 317.89 437.91C318.335 438.407 318.918 438.76 319.564 438.926C320.21 439.092 320.891 439.062 321.52 438.84C322.58 438.22 323 436.6 322.44 434.44Z" fill="black"/>
</svg>
