<svg width="750" height="500" viewBox="0 0 750 500" fill="none" xmlns="http://www.w3.org/2000/svg">
<path d="M557.58 429.01C557.56 428.49 555.799 376.59 547.359 368.39C539.149 360.41 529.73 368.09 529.33 368.42L528.479 367.41C528.589 367.32 539.22 358.64 548.28 367.44C557.1 376.02 558.83 426.81 558.89 428.97L557.57 429.01H557.58Z" fill="#E0E0E0"/>
<path d="M558.31 439.21C558.25 438.59 552.54 376.91 575.07 351.06L576.07 351.93C553.92 377.35 559.57 438.47 559.63 439.08L558.32 439.21H558.31Z" fill="#E0E0E0"/>
<path d="M557.48 432.68L556.16 432.59C556.21 431.89 560.57 362.47 544.05 347.27L544.94 346.3C561.93 361.92 557.67 429.79 557.48 432.68Z" fill="#E0E0E0"/>
<path d="M559.63 432.64H558.31C558.33 430.72 558.85 385.74 571.63 378.42C574.47 376.79 577.25 376.52 579.9 377.61C587.63 380.81 591.45 394.55 591.61 395.14L590.34 395.49C590.3 395.35 586.52 381.78 579.4 378.83C577.15 377.9 574.76 378.15 572.3 379.56C560.18 386.51 559.65 432.18 559.64 432.64H559.63Z" fill="#E0E0E0"/>
<path d="M554.65 432.68L553.33 432.61C553.35 432.26 555.26 397.07 545.76 384.67C543.46 381.67 540.96 380.23 538.32 380.42C532.1 380.85 526.88 389.96 526.83 390.05L525.68 389.4C525.91 389 531.3 379.59 538.23 379.1C541.33 378.88 544.22 380.49 546.81 383.87C556.6 396.66 554.73 431.22 554.65 432.69V432.68Z" fill="#E0E0E0"/>
<path d="M556.73 437.46C556.47 434.05 550.52 353.7 560.99 339.54L562.05 340.32C551.87 354.09 557.98 436.52 558.05 437.35L556.73 437.45V437.46Z" fill="#E0E0E0"/>
<path d="M582.74 385.76C582.74 385.76 576.46 388.08 578.33 393.54C580.2 399.01 600.05 408 600.05 408C600.05 408 608.37 400.38 600.73 387.98C593.09 375.58 582.91 381.85 582.74 385.76Z" fill="#EBEBEB"/>
<path d="M555.44 375.35C555.44 375.35 562.13 375.07 562.51 380.83C562.89 386.59 548.02 402.54 548.02 402.54C548.02 402.54 537.41 398.7 539.69 384.32C541.97 369.94 553.78 371.8 555.44 375.35Z" fill="#EBEBEB"/>
<path d="M549.78 347.77C549.78 347.77 554.24 347.29 553.88 344.58C553.52 341.86 536.55 334.88 526.53 346.18C526.53 346.18 532.94 357.19 542.21 357.34C551.48 357.48 549.77 347.78 549.77 347.78L549.78 347.77Z" fill="#EBEBEB"/>
<path d="M558.09 341.17C558.09 341.17 554.05 343.12 552.92 340.63C551.79 338.14 562.5 323.23 576.97 327.52C576.97 327.52 577.35 340.26 569.56 345.28C561.77 350.3 558.08 341.17 558.08 341.17H558.09Z" fill="#EBEBEB"/>
<path d="M536.98 383.56C536.98 383.56 540.06 381.08 536.74 379.86C533.42 378.65 517.13 378.99 516.96 395.13C516.96 395.13 535.94 398.28 538.29 392.14C540.64 385.99 536.99 383.56 536.99 383.56H536.98Z" fill="#EBEBEB"/>
<path d="M575.67 347.36C575.67 347.36 572.59 344.88 575.91 343.66C579.23 342.45 595.52 342.79 595.69 358.93C595.69 358.93 576.71 362.08 574.36 355.94C572.01 349.79 575.66 347.36 575.66 347.36H575.67Z" fill="#EBEBEB"/>
<path d="M565.64 360.36C565.64 360.36 565.37 357.34 567.81 358.52C570.25 359.7 578.74 368.87 569.94 377.56C569.94 377.56 558.09 368.78 560.22 364.21C562.36 359.64 565.64 360.35 565.64 360.35V360.36Z" fill="#EBEBEB"/>
<path d="M534.23 364.67C534.23 364.67 536.07 362.26 533.38 361.96C530.69 361.66 518.61 364.88 521.43 376.94C521.43 376.94 536.14 375.83 536.77 370.83C537.4 365.82 534.24 364.68 534.24 364.68L534.23 364.67Z" fill="#EBEBEB"/>
<path d="M572.79 445.54H539.4L535.74 417.18H576.34L572.79 445.54Z" fill="#F0F0F0"/>
<path d="M579.2 413.69H532.99V420.68H579.2V413.69Z" fill="#E6E6E6"/>
<path d="M416.31 55.68H349.49V173.29H416.31V55.68Z" fill="#E6E6E6"/>
<path d="M413.04 55.68H334.54V173.29H413.04V55.68Z" fill="#F0F0F0"/>
<path d="M401.07 66.12H346.47V162.84H401.07V66.12Z" fill="white"/>
<path d="M385.03 86.49H363.25V143.01H385.03V86.49Z" fill="#F0F0F0"/>
<path d="M673.73 314.64H492.98C489.75 314.64 487.12 312.01 487.12 308.78V45.5C487.12 42.27 489.75 39.64 492.98 39.64H673.73C676.96 39.64 679.59 42.27 679.59 45.5V308.78C679.59 312.01 676.96 314.64 673.73 314.64ZM492.99 39.89C489.9 39.89 487.38 42.41 487.38 45.5V308.78C487.38 311.87 489.9 314.39 492.99 314.39H673.74C676.83 314.39 679.35 311.87 679.35 308.78V45.5C679.35 42.41 676.83 39.89 673.74 39.89H492.99Z" fill="#E0E0E0"/>
<path d="M465.31 314.64H284.56C281.33 314.64 278.7 312.01 278.7 308.78V45.5C278.7 42.27 281.33 39.64 284.56 39.64H465.31C468.54 39.64 471.17 42.27 471.17 45.5V308.78C471.17 312.01 468.54 314.64 465.31 314.64ZM284.56 39.89C281.47 39.89 278.95 42.41 278.95 45.5V308.78C278.95 311.87 281.47 314.39 284.56 314.39H465.31C468.4 314.39 470.92 311.87 470.92 308.78V45.5C470.92 42.41 468.4 39.89 465.31 39.89H284.56Z" fill="#E0E0E0"/>
<path d="M257.01 314.64H76.2701C73.0401 314.64 70.4102 312.01 70.4102 308.78V45.5C70.4102 42.27 73.0401 39.64 76.2701 39.64H257.02C260.25 39.64 262.88 42.27 262.88 45.5V308.78C262.88 312.01 260.25 314.64 257.02 314.64H257.01ZM76.2701 39.89C73.1801 39.89 70.6602 42.41 70.6602 45.5V308.78C70.6602 311.87 73.1801 314.39 76.2701 314.39H257.02C260.11 314.39 262.63 311.87 262.63 308.78V45.5C262.63 42.41 260.11 39.89 257.02 39.89H76.2701Z" fill="#E0E0E0"/>
<path d="M750 375.71H0V375.83H750V375.71Z" fill="#E0E0E0"/>
<path d="M709.36 405.08H653.63V405.5H709.36V405.08Z" fill="#EBEBEB"/>
<path d="M509.67 409.65H495.04V410.07H509.67V409.65Z" fill="#EBEBEB"/>
<path d="M113.31 392.29H40.6401V392.71H113.31V392.29Z" fill="#EBEBEB"/>
<path d="M138.96 392.29H128.3V392.71H138.96V392.29Z" fill="#EBEBEB"/>
<path d="M331.2 399.39H173.59V399.81H331.2V399.39Z" fill="#EBEBEB"/>
<path d="M239.89 53.84H96.9902V211.97H239.89V53.84Z" fill="#E0E0E0"/>
<path d="M233.98 60.1H103.28V206.02H233.98V60.1Z" fill="#F5F5F5"/>
<path d="M140.22 60.1L103.28 198.44V123.55L120.18 60.1H140.22Z" fill="white"/>
<path d="M156.73 60.1L117.77 206.03H110.43L149.38 60.1H156.73Z" fill="white"/>
<path d="M233.98 99.9V174.8L225.71 206.03H205.67L233.98 99.9Z" fill="white"/>
<path d="M170.99 53.84H165.91V211.97H170.99V53.84Z" fill="#E0E0E0"/>
<path d="M237.16 85.93H99.4805V91.01H237.16V85.93Z" fill="#E0E0E0"/>
<path d="M650.12 53.84H507.22V211.97H650.12V53.84Z" fill="#E0E0E0"/>
<path d="M644.21 60.1H513.51V206.02H644.21V60.1Z" fill="#F5F5F5"/>
<path d="M550.44 60.1L513.51 198.44V123.55L530.41 60.1H550.44Z" fill="white"/>
<path d="M566.95 60.1L528 206.03H520.65L559.61 60.1H566.95Z" fill="white"/>
<path d="M644.2 99.9V174.8L635.93 206.03H615.89L644.2 99.9Z" fill="white"/>
<path d="M581.21 53.84H576.13V211.97H581.21V53.84Z" fill="#E0E0E0"/>
<path d="M647.38 85.93H509.7V91.01H647.38V85.93Z" fill="#E0E0E0"/>
<path d="M716.1 448.39C716.1 451.78 560.06 454.52 367.58 454.52C175.1 454.52 19.0601 451.77 19.0601 448.39C19.0601 445.01 175.1 442.26 367.58 442.26C560.06 442.26 716.1 445.01 716.1 448.39Z" fill="#F5F5F5"/>
<path d="M668.21 437.77V296.07H655.65V437.77L647.66 440.52V444.79H676.2V440.52L668.21 437.77Z" fill="#263238"/>
<path d="M508.38 296.07H495.82V437.77L487.83 440.52V444.79H516.37V440.52L508.38 437.77V296.07Z" fill="#263238"/>
<g opacity="0.2">
<path d="M668.21 312.74H655.65V437.77L647.66 440.52V444.79H676.2V440.52L668.21 437.77V312.74Z" fill="white"/>
<path d="M508.38 312.74H495.82V437.77L487.83 440.52V444.79H516.37V440.52L508.38 437.77V312.74Z" fill="white"/>
</g>
<path d="M707.03 97.42H457V300.64H707.03V97.42Z" fill="#263238"/>
<path d="M701.47 103.06H462.56V294.88H701.47V103.06Z" fill="#0F47AC"/>
<path d="M574.06 172.7H489.04V119.35L574.06 172.7ZM490.04 171.7H570.58L490.04 121.16V171.7Z" fill="#263238"/>
<path d="M494.09 172.34H493.3V168.49H489.45V167.69H494.09V172.34Z" fill="#263238"/>
<path d="M531.66 139.04H530.77V131.26H531.73V134.04C532.13 133.53 532.65 133.28 533.27 133.28C533.62 133.28 533.94 133.35 534.25 133.49C534.56 133.63 534.81 133.83 535.01 134.08C535.21 134.33 535.37 134.64 535.48 134.99C535.59 135.35 535.65 135.73 535.65 136.14C535.65 137.11 535.41 137.85 534.93 138.38C534.45 138.91 533.88 139.17 533.21 139.17C532.54 139.17 532.02 138.89 531.64 138.34V139.05L531.66 139.04ZM531.65 136.18C531.65 136.86 531.74 137.34 531.93 137.64C532.23 138.13 532.64 138.38 533.15 138.38C533.57 138.38 533.93 138.2 534.23 137.84C534.53 137.48 534.69 136.94 534.69 136.22C534.69 135.5 534.54 134.94 534.25 134.59C533.96 134.24 533.61 134.06 533.19 134.06C532.77 134.06 532.41 134.24 532.11 134.6C531.81 134.96 531.65 135.49 531.65 136.17V136.18Z" fill="#263238"/>
<path d="M491.5 217.49H490.61V209.71H491.57V212.49C491.97 211.98 492.49 211.73 493.11 211.73C493.46 211.73 493.78 211.8 494.09 211.94C494.4 212.08 494.65 212.28 494.85 212.53C495.05 212.78 495.21 213.09 495.32 213.44C495.43 213.8 495.49 214.18 495.49 214.59C495.49 215.56 495.25 216.3 494.77 216.83C494.29 217.36 493.72 217.62 493.05 217.62C492.38 217.62 491.86 217.34 491.48 216.79V217.5L491.5 217.49ZM491.49 214.63C491.49 215.31 491.58 215.79 491.77 216.09C492.07 216.58 492.48 216.83 492.99 216.83C493.41 216.83 493.77 216.65 494.07 216.29C494.37 215.93 494.53 215.39 494.53 214.67C494.53 213.95 494.38 213.39 494.09 213.04C493.8 212.69 493.45 212.51 493.03 212.51C492.61 212.51 492.25 212.69 491.95 213.05C491.65 213.41 491.49 213.94 491.49 214.62V214.63Z" fill="#263238"/>
<path d="M523.06 180.74L524 180.86C523.9 181.51 523.63 182.01 523.21 182.38C522.79 182.75 522.27 182.93 521.65 182.93C520.88 182.93 520.26 182.68 519.79 182.17C519.32 181.67 519.09 180.94 519.09 180C519.09 179.39 519.19 178.86 519.39 178.4C519.59 177.94 519.9 177.6 520.31 177.37C520.72 177.14 521.17 177.03 521.66 177.03C522.27 177.03 522.77 177.18 523.16 177.49C523.55 177.8 523.8 178.24 523.91 178.81L522.98 178.95C522.89 178.57 522.73 178.29 522.51 178.1C522.29 177.91 522.01 177.81 521.7 177.81C521.22 177.81 520.83 177.98 520.53 178.33C520.23 178.68 520.08 179.22 520.08 179.97C520.08 180.72 520.23 181.28 520.52 181.62C520.81 181.96 521.19 182.13 521.66 182.13C522.03 182.13 522.35 182.02 522.6 181.79C522.85 181.56 523.01 181.21 523.08 180.73L523.06 180.74Z" fill="#263238"/>
<path d="M494.3 231.38L495.24 231.5C495.14 232.15 494.87 232.65 494.45 233.02C494.03 233.39 493.51 233.57 492.89 233.57C492.12 233.57 491.5 233.32 491.03 232.81C490.56 232.31 490.33 231.58 490.33 230.64C490.33 230.03 490.43 229.5 490.63 229.04C490.83 228.58 491.14 228.24 491.55 228.01C491.96 227.78 492.41 227.67 492.9 227.67C493.51 227.67 494.01 227.82 494.4 228.13C494.79 228.44 495.04 228.88 495.15 229.45L494.22 229.59C494.13 229.21 493.97 228.93 493.75 228.74C493.53 228.55 493.25 228.45 492.94 228.45C492.46 228.45 492.07 228.62 491.77 228.97C491.47 229.32 491.32 229.86 491.32 230.61C491.32 231.36 491.47 231.92 491.76 232.26C492.05 232.6 492.43 232.77 492.9 232.77C493.27 232.77 493.59 232.66 493.84 232.43C494.09 232.2 494.25 231.85 494.32 231.37L494.3 231.38Z" fill="#263238"/>
<path d="M484.73 150.73C484.38 151.03 484.04 151.24 483.71 151.37C483.38 151.49 483.03 151.56 482.66 151.56C482.04 151.56 481.56 151.41 481.23 151.11C480.9 150.81 480.73 150.42 480.73 149.95C480.73 149.67 480.79 149.42 480.92 149.19C481.05 148.96 481.21 148.78 481.41 148.64C481.61 148.5 481.84 148.4 482.1 148.33C482.29 148.28 482.57 148.23 482.95 148.19C483.72 148.1 484.29 147.99 484.65 147.86C484.65 147.73 484.65 147.65 484.65 147.61C484.65 147.22 484.56 146.95 484.38 146.79C484.14 146.57 483.77 146.47 483.29 146.47C482.84 146.47 482.51 146.55 482.29 146.71C482.08 146.87 481.92 147.15 481.82 147.55L480.89 147.42C480.97 147.02 481.11 146.7 481.31 146.45C481.5 146.2 481.79 146.02 482.15 145.88C482.52 145.75 482.94 145.68 483.43 145.68C483.92 145.68 484.3 145.74 484.6 145.85C484.9 145.96 485.12 146.11 485.26 146.28C485.4 146.45 485.5 146.67 485.56 146.93C485.59 147.09 485.61 147.39 485.61 147.81V149.08C485.61 149.97 485.63 150.53 485.67 150.76C485.71 151 485.79 151.22 485.91 151.44H484.91C484.81 151.24 484.75 151.01 484.72 150.74L484.73 150.73ZM484.65 148.6C484.3 148.74 483.78 148.86 483.09 148.96C482.7 149.02 482.42 149.08 482.26 149.15C482.1 149.22 481.97 149.32 481.88 149.46C481.79 149.6 481.75 149.75 481.75 149.91C481.75 150.16 481.85 150.38 482.04 150.55C482.23 150.72 482.51 150.8 482.89 150.8C483.27 150.8 483.59 150.72 483.87 150.56C484.16 150.4 484.37 150.18 484.5 149.9C484.6 149.68 484.65 149.37 484.65 148.94V148.59V148.6Z" fill="#263238"/>
<path d="M494.3 200.83C493.95 201.13 493.61 201.34 493.28 201.47C492.95 201.59 492.6 201.66 492.23 201.66C491.61 201.66 491.13 201.51 490.8 201.21C490.47 200.91 490.3 200.52 490.3 200.05C490.3 199.77 490.36 199.52 490.49 199.29C490.62 199.06 490.78 198.88 490.98 198.74C491.18 198.6 491.41 198.5 491.67 198.43C491.86 198.38 492.14 198.33 492.52 198.29C493.29 198.2 493.86 198.09 494.22 197.96C494.22 197.83 494.22 197.75 494.22 197.71C494.22 197.32 494.13 197.05 493.95 196.89C493.71 196.67 493.34 196.57 492.86 196.57C492.41 196.57 492.08 196.65 491.86 196.81C491.65 196.97 491.49 197.25 491.39 197.65L490.46 197.52C490.54 197.12 490.68 196.8 490.88 196.55C491.07 196.3 491.36 196.12 491.72 195.98C492.09 195.85 492.51 195.78 493 195.78C493.49 195.78 493.87 195.84 494.17 195.95C494.47 196.06 494.69 196.21 494.83 196.38C494.97 196.55 495.07 196.77 495.13 197.03C495.16 197.19 495.18 197.49 495.18 197.91V199.18C495.18 200.07 495.2 200.63 495.24 200.86C495.28 201.1 495.36 201.32 495.48 201.54H494.48C494.38 201.34 494.32 201.11 494.29 200.84L494.3 200.83ZM494.22 198.7C493.87 198.84 493.35 198.96 492.66 199.06C492.27 199.12 491.99 199.18 491.83 199.25C491.67 199.32 491.54 199.42 491.45 199.56C491.36 199.7 491.32 199.85 491.32 200.01C491.32 200.26 491.42 200.48 491.61 200.65C491.8 200.82 492.08 200.9 492.46 200.9C492.84 200.9 493.16 200.82 493.44 200.66C493.73 200.5 493.94 200.28 494.07 200C494.17 199.78 494.22 199.47 494.22 199.04V198.69V198.7Z" fill="#263238"/>
<path d="M637.39 120.32H591.72V121.32H637.39V120.32Z" fill="#263238"/>
<path d="M616.84 129.46H591.72V130.46H616.84V129.46Z" fill="#263238"/>
<path d="M627.11 136.31H591.72V137.31H627.11V136.31Z" fill="#263238"/>
<path d="M621.4 144.3H591.72V145.3H621.4V144.3Z" fill="#263238"/>
<path d="M636.25 153.43H591.72V154.43H636.25V153.43Z" fill="#263238"/>
<path d="M635.1 161.42H591.72V162.42H635.1V161.42Z" fill="#263238"/>
<path d="M621.4 169.42H591.72V170.42H621.4V169.42Z" fill="#263238"/>
<path d="M673.93 239.06H643.1V240.06H673.93V239.06Z" fill="#263238"/>
<path d="M660.22 248.19H643.1V249.19H660.22V248.19Z" fill="#263238"/>
<path d="M667.08 255.04H643.1V256.04H667.08V255.04Z" fill="#263238"/>
<path d="M663.65 263.03H643.1V264.03H663.65V263.03Z" fill="#263238"/>
<path d="M517.52 253.9H486.69V254.9H517.52V253.9Z" fill="#263238"/>
<path d="M503.81 263.03H486.69V264.03H503.81V263.03Z" fill="#263238"/>
<path d="M510.66 269.88H486.69V270.88H510.66V269.88Z" fill="#263238"/>
<path d="M507.24 277.88H486.69V278.88H507.24V277.88Z" fill="#263238"/>
<path d="M681.91 136.31H652.23V137.31H681.91V136.31Z" fill="#263238"/>
<path d="M681.91 144.3H652.23V145.3H681.91V144.3Z" fill="#263238"/>
<path d="M672.78 152.29H652.23V153.29H672.78V152.29Z" fill="#263238"/>
<path d="M594 253.9H564.32V254.9H594V253.9Z" fill="#263238"/>
<path d="M594 261.89H564.32V262.89H594V261.89Z" fill="#263238"/>
<path d="M584.87 269.88H564.32V270.88H584.87V269.88Z" fill="#263238"/>
<path d="M574.6 201.38H508.38V202.38H574.6V201.38Z" fill="#263238"/>
<path d="M574.6 216.22H508.38V217.22H574.6V216.22Z" fill="#263238"/>
<path d="M574.6 231.07H508.38V232.07H574.6V231.07Z" fill="#263238"/>
<path d="M618.52 240.02C606.81 240.02 597.29 230.5 597.29 218.79C597.29 207.08 606.81 197.56 618.52 197.56C630.23 197.56 639.75 207.08 639.75 218.79C639.75 230.5 630.23 240.02 618.52 240.02ZM618.52 198.35C607.25 198.35 598.08 207.52 598.08 218.79C598.08 230.06 607.25 239.23 618.52 239.23C629.79 239.23 638.96 230.06 638.96 218.79C638.96 207.52 629.79 198.35 618.52 198.35Z" fill="#263238"/>
<path d="M639.67 219.51H618.05V197.89H619.05V218.51H639.67V219.51Z" fill="#263238"/>
<path opacity="0.6" d="M701.47 103.06H462.56V294.88H701.47V103.06Z" fill="white"/>
<path d="M608.86 110.67H578.16C575.24 110.67 572.87 113.04 572.87 115.96V138.36C572.87 141.28 575.24 143.65 578.16 143.65H600.94L608.31 151.02V143.65H608.86C611.78 143.65 614.15 141.28 614.15 138.36V115.96C614.15 113.04 611.78 110.67 608.86 110.67Z" fill="#0F47AC"/>
<path d="M581.01 127.15C581.01 128.69 582.25 129.93 583.79 129.93C585.33 129.93 586.57 128.68 586.57 127.15C586.57 125.62 585.33 124.37 583.79 124.37C582.25 124.37 581.01 125.61 581.01 127.15Z" fill="white"/>
<path d="M590.55 127.15C590.55 128.69 591.79 129.93 593.33 129.93C594.87 129.93 596.11 128.68 596.11 127.15C596.11 125.62 594.87 124.37 593.33 124.37C591.79 124.37 590.55 125.61 590.55 127.15Z" fill="white"/>
<path d="M600.09 127.15C600.09 128.69 601.33 129.93 602.87 129.93C604.41 129.93 605.65 128.68 605.65 127.15C605.65 125.62 604.41 124.37 602.87 124.37C601.33 124.37 600.09 125.61 600.09 127.15Z" fill="white"/>
<path d="M583.01 109.21H600.02C600.5 109.21 600.5 108.46 600.02 108.46H583.01C582.53 108.46 582.53 109.21 583.01 109.21Z" fill="#0F47AC"/>
<path d="M602.06 109.16H603.22C603.42 109.16 603.6 108.99 603.6 108.78C603.6 108.57 603.44 108.4 603.22 108.4H602.06C601.86 108.4 601.68 108.57 601.68 108.78C601.68 108.99 601.84 109.16 602.06 109.16Z" fill="#0F47AC"/>
<path d="M249.66 119.11C243.97 109.32 247.29 96.76 257.09 91.07C266.88 85.38 279.44 88.71 285.13 98.5C289.52 106.06 288.52 115.25 283.34 121.68L284.34 127.76L277.98 126.36C277.88 126.42 277.79 126.49 277.69 126.55C267.9 132.24 255.34 128.91 249.65 119.12L249.66 119.11Z" fill="#0F47AC"/>
<path d="M244.39 108.72C244.26 108.72 244.15 108.62 244.14 108.49C243.66 101.78 246.83 94.85 252.22 90.83C252.33 90.75 252.49 90.77 252.57 90.88C252.65 90.99 252.63 91.15 252.52 91.23C247.26 95.15 244.17 101.91 244.64 108.45C244.64 108.59 244.55 108.71 244.41 108.72H244.39Z" fill="#0F47AC"/>
<path d="M245.33 114.73C245.23 114.73 245.14 114.67 245.1 114.58C244.68 113.62 244.46 112.56 244.46 111.51C244.46 111.37 244.57 111.26 244.71 111.26C244.85 111.26 244.96 111.37 244.96 111.51C244.96 112.49 245.16 113.48 245.55 114.38C245.61 114.51 245.55 114.65 245.42 114.71C245.39 114.72 245.35 114.73 245.32 114.73H245.33Z" fill="#0F47AC"/>
<path d="M267.39 119.55C266.62 119.55 265.98 119.3 265.46 118.8C264.94 118.3 264.68 117.7 264.68 116.98C264.68 116.26 264.93 115.67 265.44 115.19C265.95 114.71 266.6 114.47 267.39 114.47C268.18 114.47 268.83 114.71 269.34 115.19C269.85 115.67 270.1 116.27 270.1 116.98C270.1 117.69 269.84 118.3 269.32 118.8C268.8 119.3 268.16 119.55 267.39 119.55ZM269.14 112.47H265.64L264.77 99.58H270.02L269.15 112.47H269.14Z" fill="white"/>
<path d="M625.22 256.14C625.22 256.14 608.15 320.14 604.88 345.97C600.61 379.67 589.12 428.22 589.12 428.22L596.51 428.42C596.51 428.42 619.57 387.72 624.34 350.02C643.89 311.5 645.46 264.06 645.46 264.06L625.22 256.13V256.14Z" fill="#E9B376"/>
<path d="M578.59 444.37C579.64 443.73 580.8 443.28 582.02 443.04C582.02 443.04 585.93 440.06 588.83 430.14L593.57 429.52C595.21 429.33 596.81 430.14 597.56 431.56C597.67 431.75 597.74 431.96 597.78 432.18C597.88 433.27 597.92 434.37 597.88 435.46C597.69 439.2 597.27 442.92 596.63 446.62L595.79 446.52L596.3 439.52C596.45 437.14 594.25 439.7 593.4 442.2C592.55 444.7 591.09 447.27 585.7 446.8C579.4 446.21 576.82 445.68 578.58 444.37H578.59Z" fill="#263238"/>
<path d="M589.33 427.58C589.33 427.58 585.1 440.29 582.01 443.05C582.01 443.05 586.95 445.07 590.88 438.59C595.97 430.23 597.78 432.19 597.78 432.19C597.47 430.9 597.04 429.65 596.5 428.43C595.22 426.08 589.33 427.58 589.33 427.58Z" fill="#E9B376"/>
<path d="M637.97 255.14C637.97 255.14 630.77 320.63 633.12 346.56C636.17 380.38 638.39 430.59 638.39 430.59L645.6 430.9C645.6 430.9 661.04 362.88 654.38 346.86C665.24 305.27 659.56 258.86 659.56 258.86L637.98 255.15L637.97 255.14Z" fill="#E9B376"/>
<path d="M627.18 445.23C628.25 444.61 629.42 444.19 630.65 443.98C630.65 443.98 634.65 441.12 637.81 431.27L642.57 430.75C644.23 430.6 645.8 431.47 646.5 432.93C646.6 433.13 646.67 433.33 646.7 433.55C646.77 434.66 646.77 435.78 646.7 436.89C646.41 440.61 645.89 444.31 645.14 447.97L644.3 447.85L645 440.86C645.23 438.49 642.94 441 642.03 443.46C641.11 445.92 639.59 448.47 634.2 447.87C627.94 447.09 625.38 446.5 627.17 445.23H627.18Z" fill="#263238"/>
<path d="M639.12 427.74C639.12 427.74 637.43 432.21 635.17 437.11C634.14 439.65 632.6 441.97 630.65 443.95C630.65 443.95 634.58 445.18 636.7 442.81C638.81 440.44 642.44 431.92 646.51 432.86C646.29 432.16 645.99 431.49 645.61 430.87C645 429.93 639.14 427.76 639.14 427.76L639.12 427.74Z" fill="#E9B376"/>
<path d="M559.21 180.74C559.21 180.74 556.03 173.66 554.58 173.18C553.13 172.7 551.86 173.03 551.86 173.03C551.86 173.03 542.52 165.66 541.63 167.14C541.15 167.94 543.15 170.13 547.61 173.55C547.61 173.55 544.68 174.2 545.58 175.98C545.58 175.98 543.4 176.64 544.22 178.83C544.22 178.83 543.03 180.5 544.06 181.81C545.09 183.12 550.23 187.06 553.4 187.97C554.36 188.25 556.01 188.82 556.83 188.19C556.83 188.19 565.2 193.61 565.4 193.87L569.9 185.05L559.22 180.73L559.21 180.74Z" fill="#E9B376"/>
<path opacity="0.3" d="M554.47 182.14C554.47 182.14 554.45 182.14 554.44 182.14C553.45 182.01 552.53 181.28 552.04 180.24C551.66 179.44 551.46 178.12 551.45 177.13C550.25 177.79 548.33 177.97 547.36 177.22C546.71 176.72 546.58 176.16 546.95 175.47C547.13 175.13 547.66 174.9 548.28 174.65C548.4 174.6 548.5 174.56 548.58 174.52C549.09 174.29 549.59 174.01 550.07 173.75C550.56 173.48 551.07 173.21 551.59 172.97C551.71 172.91 551.86 172.97 551.92 173.09C551.98 173.22 551.92 173.36 551.8 173.42C551.3 173.65 550.8 173.92 550.31 174.19C549.82 174.46 549.31 174.73 548.79 174.97C548.7 175.01 548.59 175.06 548.46 175.11C548.12 175.24 547.5 175.49 547.39 175.7C547.13 176.17 547.2 176.47 547.66 176.82C548.55 177.51 550.61 177.2 551.55 176.46C551.63 176.4 551.74 176.39 551.82 176.44C551.91 176.49 551.96 176.58 551.95 176.68C551.88 177.61 552.08 179.18 552.48 180.03C552.9 180.92 553.67 181.54 554.49 181.65C554.63 181.67 554.72 181.79 554.7 181.93C554.68 182.06 554.58 182.15 554.45 182.15L554.47 182.14Z" fill="#263238"/>
<path opacity="0.3" d="M547 183.56C546.8 183.56 546.59 183.52 546.39 183.44C546.01 183.29 545.7 183.04 545.4 182.79C545.29 182.7 545.28 182.54 545.37 182.44C545.46 182.34 545.62 182.32 545.72 182.41C545.99 182.63 546.26 182.86 546.57 182.98C546.88 183.1 547.2 183.09 547.41 182.96C547.79 182.72 547.83 182.12 547.67 181.65C547.5 181.15 547.18 180.71 546.76 180.4C546.55 180.31 546.35 180.2 546.14 180.06C546.03 179.99 546 179.85 546.05 179.74C546.11 179.63 546.24 179.57 546.36 179.62C546.59 179.71 546.8 179.82 547 179.96C547.3 180.09 547.65 180.19 548.03 180.17C548.61 180.15 549.14 179.86 549.37 179.42C549.62 178.96 549.49 178.33 549.09 178.08C548.97 178 548.94 177.85 549.02 177.73C549.1 177.61 549.25 177.58 549.37 177.66C549.98 178.06 550.18 178.97 549.81 179.66C549.49 180.26 548.8 180.65 548.04 180.68C547.93 180.68 547.82 180.68 547.71 180.67C547.9 180.92 548.04 181.2 548.14 181.5C548.35 182.13 548.29 182.99 547.67 183.39C547.48 183.51 547.24 183.58 546.99 183.58L547 183.56Z" fill="#263238"/>
<path d="M622.85 179.02V199.36L619.84 201.99C613.71 204.95 599.94 210.81 596.01 210.67C588.67 210.31 562.15 194.5 562.15 194.5L567.77 183.8C567.77 183.8 590.7 193.66 594.09 192.99C597.48 192.32 622.86 179 622.86 179L622.85 179.02Z" fill="#0F47AC"/>
<path d="M660.46 136.88C660.46 136.88 664.04 137.07 667.06 142.96C670.08 148.85 666.3 155.39 665.55 158.52C664.79 161.65 661.03 164.42 667.24 169.15C673.45 173.88 677.18 178.91 672.14 184.03C667.1 189.15 672.64 193.07 665.36 196.87C658.08 200.67 631.27 194.98 627.88 187.64C624.49 180.3 628.58 174.71 628.8 172.52C629.02 170.33 624.49 168.08 623.36 160.9C622.23 153.72 628.02 152.19 628.8 148.91C629.58 145.63 625.95 141.5 628.8 134.53C631.65 127.56 660.08 126.06 660.46 136.88Z" fill="#263238"/>
<path opacity="0.4" d="M660.46 136.88C660.46 136.88 664.04 137.07 667.06 142.96C670.08 148.85 666.3 155.39 665.55 158.52C664.79 161.65 661.03 164.42 667.24 169.15C673.45 173.88 677.18 178.91 672.14 184.03C667.1 189.15 672.64 193.07 665.36 196.87C658.08 200.67 631.27 194.98 627.88 187.64C624.49 180.3 628.58 174.71 628.8 172.52C629.02 170.33 624.49 168.08 623.36 160.9C622.23 153.72 628.02 152.19 628.8 148.91C629.58 145.63 625.95 141.5 628.8 134.53C631.65 127.56 660.08 126.06 660.46 136.88Z" fill="white"/>
<path d="M615.28 255.44C615.95 255.65 653.47 256.7 674.86 255.15C674.86 255.15 668.1 211.58 656.8 206.83C650.79 204.31 629.86 205.75 622.15 216.35C615.36 225.69 615.28 244.76 615.28 255.43V255.44Z" fill="#0F47AC"/>
<path opacity="0.2" d="M615.28 255.44C615.95 255.65 653.47 256.7 674.86 255.15C674.86 255.15 668.1 211.58 656.8 206.83C650.79 204.31 629.86 205.75 622.15 216.35C615.36 225.69 615.28 244.76 615.28 255.43V255.44Z" fill="black"/>
<path d="M623.04 234.93L660.33 238.15C660.69 228.91 662.02 219.73 664.3 210.76C665.19 207.19 666.31 203.2 667.75 198.59C668.52 196.13 669.37 193.48 670.31 190.68C671.02 188.52 671.79 186.23 672.64 183.81C667.58 182.19 662.4 180.94 657.16 180.07C651.63 179.09 646.03 178.5 640.41 178.31C633.16 178.31 624.82 179.07 624.82 179.07C624.82 179.07 623.63 179.35 622.89 187.05C622.22 194.23 621.56 208.67 623.05 234.94L623.04 234.93Z" fill="#0F47AC"/>
<path d="M623.22 240.52L660.51 243.59C661.1 234.32 661.54 221.8 664.33 210.75C665.22 207.18 666.34 203.19 667.78 198.58C668.55 196.12 669.4 193.47 670.34 190.67C671.05 188.51 671.82 186.22 672.67 183.8C667.61 182.18 662.43 180.93 657.19 180.06C651.66 179.08 646.06 178.49 640.44 178.3C633.19 178.3 624.85 179.06 624.85 179.06C624.85 179.06 623.66 179.34 622.92 187.04C622.22 194.22 621.72 214.25 623.23 240.52H623.22Z" fill="#263238"/>
<path d="M663.06 180.77C663.06 180.77 656.22 228.04 674.86 255.16C674.86 255.16 666.52 206.16 672.65 183.77L663.06 180.78V180.77Z" fill="#0F47AC"/>
<path d="M630.55 178.26C630.55 178.26 628.31 200.18 627.16 209.05C624.34 230.87 615.28 256.01 615.28 256.01C615.28 256.01 616.71 195.62 622.83 179.01L630.55 178.25V178.26Z" fill="#0F47AC"/>
<path d="M623.22 240.52L587.22 380.55C587.22 380.55 656.6 385.38 675.88 381.43C675.88 381.43 680.61 282.58 660.49 243.58L623.22 240.53V240.52Z" fill="#0F47AC"/>
<path opacity="0.4" d="M623.22 240.52L587.22 380.55C587.22 380.55 656.6 385.38 675.88 381.43C675.88 381.43 680.61 282.58 660.49 243.58L623.22 240.53V240.52Z" fill="white"/>
<path d="M641.22 138.58C641.22 138.58 633.631 152.27 633.271 156.52C630.361 159 628.3 153.98 628.41 147.25C628.5 141.74 631.37 135.8 636.13 133.66C642.81 130.65 641.23 138.57 641.23 138.57L641.22 138.58Z" fill="#263238"/>
<path opacity="0.4" d="M641.22 138.58C641.22 138.58 633.631 152.27 633.271 156.52C630.361 159 628.3 153.98 628.41 147.25C628.5 141.74 631.37 135.8 636.13 133.66C642.81 130.65 641.23 138.57 641.23 138.57L641.22 138.58Z" fill="white"/>
<path d="M642.65 177.33C643.92 176.06 643.62 175.34 643.38 173.49C643.21 172.07 642.75 170.59 642.21 169.15L644.11 167.09L653.98 157.82C653.51 164.23 653.67 176.63 658.56 180.3L645.07 187.7L637.51 178.3C637.51 178.3 640.78 178.37 642.65 177.33Z" fill="#E9B376"/>
<path opacity="0.2" d="M643.43 174.04C646.11 172.58 649.08 169.99 648.84 166.89C648.73 165.59 648.5 164.35 648.22 163.55L642.64 170.4C643.04 171.55 643.17 172.31 643.42 174.04H643.43Z" fill="black"/>
<path d="M657.04 147.61C655.79 157.36 655.47 161.51 650.23 166.45C642.36 173.89 630.76 170.87 629.1 161.1C627.61 152.3 629.9 137.83 639.66 134.07C649.27 130.36 658.29 137.85 657.04 147.61Z" fill="#E9B376"/>
<path d="M643.77 151.05C643.77 151.97 643.24 152.75 642.59 152.79C641.95 152.83 641.43 152.13 641.44 151.21C641.44 150.29 641.97 149.51 642.62 149.47C643.26 149.43 643.78 150.13 643.77 151.05Z" fill="#263238"/>
<path d="M634.46 150.34C634.5 151.23 634.02 152.02 633.39 152.1C632.75 152.18 632.2 151.53 632.16 150.64C632.12 149.75 632.6 148.96 633.23 148.88C633.87 148.8 634.42 149.45 634.46 150.34Z" fill="#263238"/>
<path d="M646.381 147.9C646.251 147.9 646.13 147.87 646.04 147.77C644.6 146.31 642.88 146.72 642.86 146.72C642.61 146.78 642.361 146.63 642.311 146.37C642.271 146.11 642.441 145.85 642.701 145.78C642.791 145.76 644.951 145.24 646.741 147.06C646.921 147.24 646.91 147.55 646.72 147.74C646.63 147.83 646.511 147.89 646.391 147.89L646.381 147.9Z" fill="#263238"/>
<path opacity="0.4" d="M646.381 147.9C646.251 147.9 646.13 147.87 646.04 147.77C644.6 146.31 642.88 146.72 642.86 146.72C642.61 146.78 642.361 146.63 642.311 146.37C642.271 146.11 642.441 145.85 642.701 145.78C642.791 145.76 644.951 145.24 646.741 147.06C646.921 147.24 646.91 147.55 646.72 147.74C646.63 147.83 646.511 147.89 646.391 147.89L646.381 147.9Z" fill="white"/>
<path d="M631.21 145.9C631.1 145.86 631 145.79 630.95 145.67C630.84 145.44 630.95 145.16 631.19 145.04C633.66 143.85 635.58 144.88 635.67 144.93C635.9 145.06 635.97 145.34 635.82 145.56C635.68 145.78 635.37 145.86 635.14 145.74C635.07 145.7 633.56 144.92 631.6 145.87C631.47 145.93 631.33 145.94 631.21 145.9Z" fill="#263238"/>
<path opacity="0.4" d="M631.21 145.9C631.1 145.86 631 145.79 630.95 145.67C630.84 145.44 630.95 145.16 631.19 145.04C633.66 143.85 635.58 144.88 635.67 144.93C635.9 145.06 635.97 145.34 635.82 145.56C635.68 145.78 635.37 145.86 635.14 145.74C635.07 145.7 633.56 144.92 631.6 145.87C631.47 145.93 631.33 145.94 631.21 145.9Z" fill="white"/>
<path d="M659.71 155.69C658.48 157.65 656.56 158.85 654.82 159.22C652.21 159.78 651.02 155.56 652 153C652.88 150.69 655.48 149.24 657.98 149.84C660.45 150.43 661.11 153.45 659.71 155.69Z" fill="#E9B376"/>
<path d="M637.25 149.58C637.25 149.58 635.59 153.19 633.78 155.41C633.46 155.8 633.63 156.39 634.09 156.58C635.28 157.07 636.71 156.72 636.71 156.72L637.25 149.59V149.58Z" fill="#D58745"/>
<path d="M642.82 149.44L640.55 149.02C640.55 149.02 641.86 150.64 642.82 149.44Z" fill="#263238"/>
<path d="M633.56 148.89L631.271 148.6C632.381 149.82 633.27 149.29 633.56 148.89Z" fill="#263238"/>
<path d="M659.68 142.27C661.01 144.19 658.36 149.76 658.36 149.76C658.36 149.76 653.67 148.36 653.41 155.43C651.68 155.72 649.74 149.12 650.02 142.48C650.37 138.73 657.33 138.88 659.68 142.27Z" fill="#263238"/>
<g opacity="0.4">
<path d="M659.68 142.27C661.01 144.19 658.36 149.76 658.36 149.76C658.36 149.76 653.67 148.36 653.41 155.43C651.68 155.72 649.74 149.12 650.02 142.48C650.37 138.73 657.33 138.88 659.68 142.27Z" fill="white"/>
</g>
<path opacity="0.2" d="M655.41 156.8C655.3 156.8 655.19 156.72 655.17 156.61C655.14 156.48 655.22 156.34 655.36 156.31C656.76 155.98 657.39 155.26 657.68 154.71C657.99 154.11 657.97 153.57 657.86 153.28C657.63 152.7 656.9 152.24 656.22 152.51C656.09 152.56 655.95 152.5 655.9 152.37C655.85 152.24 655.91 152.1 656.04 152.05C657.01 151.68 658 152.3 658.33 153.11C658.49 153.51 658.52 154.21 658.13 154.95C657.8 155.59 657.07 156.42 655.48 156.8C655.46 156.8 655.44 156.8 655.42 156.8H655.41Z" fill="#263238"/>
<path d="M635.81 159.91C636.54 160.99 637.44 163.09 637.44 163.09C637.65 163.04 637.85 163 638.05 162.94C640.82 162.23 641.87 160.99 642.19 159.82C642.36 159.18 642.31 158.56 642.21 158.08C642.09 157.51 641.88 157.14 641.88 157.14C640.64 158.39 638.11 159.25 636.74 159.66C636.17 159.83 635.8 159.92 635.8 159.92L635.81 159.91Z" fill="#263238"/>
<path d="M636.75 159.65L637.26 160.58C639.86 159.9 641.61 159.08 642.22 158.08C642.1 157.51 641.891 157.14 641.891 157.14C640.651 158.39 638.12 159.25 636.75 159.66V159.65Z" fill="white"/>
<path d="M638.05 162.94C640.82 162.23 641.87 160.99 642.19 159.82C641.26 160.1 640.16 160.54 639.27 161.22C638.59 161.74 638.24 162.36 638.05 162.94Z" fill="#DC5753"/>
<path d="M631.411 136.83C633.481 132.53 641.911 128.53 651.611 132.68C660.371 136.42 662.901 149.17 656.571 149.65C650.241 150.13 642.771 143.93 642.771 143.93L631.411 136.82V136.83Z" fill="#263238"/>
<path d="M685.63 216.65L686.701 237.33C682.42 237.88 673.2 227.38 669.62 219.59C666.56 212.98 664.98 207.27 664.98 207.27L667.24 200.9L672.63 183.81C672.63 183.81 679.42 194.76 685.62 216.66" fill="#0F47AC"/>
<path d="M720.15 168.95L716.61 166.92L703.59 170.48L686.01 165.92L681.95 179.26C681.95 179.26 681.11 194.13 681.95 194.31C682.79 194.49 702.07 195.49 702.07 195.49L711.87 189.24L720.14 168.95H720.15Z" fill="#E0E0E0"/>
<path d="M681.281 166.92L673.5 197.7L697.5 200.39L714.06 195.82L722.51 166.92L703.581 171.83L681.281 166.92Z" fill="#0F47AC"/>
<path opacity="0.4" d="M703.581 171.83L697.5 200.39L673.5 197.7L681.281 166.92L703.581 171.83Z" fill="white"/>
<path opacity="0.2" d="M703.581 171.83L697.5 200.39L714.06 195.82L722.51 166.92L703.581 171.83Z" fill="white"/>
<path d="M684.56 236.29C690.49 241.34 695.61 233.15 699.68 209.39L689.34 207.36L680.9 229.28L684.56 236.29Z" fill="#0F47AC"/>
<path opacity="0.2" d="M671.01 222.27L670.4 206.3C670.4 206.3 673.87 214.9 671.01 222.27Z" fill="black"/>
<path d="M690.041 207.49L692.321 201.25L699.681 199.73L699.101 209.27L690.041 207.49Z" fill="#E9B376"/>
<path d="M690.57 200.23C690.8 201.82 692.15 203.01 693.75 203.01C696.73 203.01 700.88 202.6 701.68 201.33C702.82 199.52 702.56 193.39 701.86 192.96C701.16 192.53 700.65 194.02 700.65 194.02C700.65 194.02 700.58 191.13 699.52 191.09C698.49 191.05 698.18 193.22 698.18 193.22C698.18 193.22 698.3 190.67 696.92 190.71C695.77 190.74 695.49 193.42 695.49 193.42C695.49 193.42 695.6 190.98 694.05 191.71C692.51 192.44 690.58 200.23 690.58 200.23H690.57Z" fill="#E9B376"/>
<path opacity="0.2" d="M695.62 193.42L694.91 198.07C694.91 198.13 694.84 198.18 694.76 198.17C694.69 198.17 694.64 198.1 694.65 198.04L695.36 193.4C695.36 193.34 695.43 193.29 695.51 193.3C695.58 193.3 695.62 193.36 695.62 193.42Z" fill="black"/>
<path opacity="0.2" d="M698.3 193.36L697.97 197.87C697.97 197.93 697.9 197.98 697.83 197.98C697.76 197.98 697.72 197.93 697.71 197.86L698.04 193.35C698.04 193.29 698.11 193.24 698.18 193.24C698.25 193.24 698.3 193.3 698.3 193.36Z" fill="black"/>
<path opacity="0.2" d="M700.781 194.17L700.63 197.53C700.63 197.59 700.57 197.64 700.5 197.64C700.43 197.64 700.37 197.58 700.38 197.52L700.531 194.16C700.531 194.1 700.59 194.05 700.66 194.05C700.73 194.05 700.791 194.11 700.781 194.17Z" fill="black"/>
<path d="M701.46 198.48L704 197.75C704 197.75 704.16 200.87 701.14 201.8L701.46 198.48Z" fill="#E9B376"/>
<path opacity="0.4" d="M631.41 136.83C633.48 132.53 641.91 128.53 651.61 132.68C660.37 136.42 662.9 149.17 656.57 149.65C650.24 150.13 642.77 143.93 642.77 143.93L631.41 136.82V136.83Z" fill="white"/>
<path d="M347.14 156.24C347.67 156.77 374.7 136.64 374.7 136.64L370.64 104.86L378.33 103.99C378.33 103.99 394.46 138.92 387.58 144.92C380.7 150.92 355.08 169.82 354.55 169.65C354.02 169.48 347.14 156.24 347.14 156.24Z" fill="#FFB573"/>
<path d="M370.64 105.95C370.64 105.95 367.24 104.9 365.9 102.28C364.56 99.66 362.79 97.93 361.92 95.91C361.06 93.89 363.72 95.19 364.99 96.17C366.27 97.15 367.72 98.24 368.3 97.16C368.88 96.08 368.59 85.57 369.56 84.17C370.53 82.77 371.11 84.45 371.11 84.45C371.11 84.45 371.11 81.9 372.12 81.62C372.38 81.55 373.11 81.81 373.29 82.97C373.7 85.59 374.28 91.13 374.28 91.13C374.24 90.81 374.01 83.92 374.11 82.89C374.24 81.54 374.99 80.96 375.78 81.07C376.89 81.21 377.47 89.75 377.75 90.09C377.75 90.09 377.25 85.19 378.45 84.37C379.65 83.55 380.13 86.62 380.04 89.4C379.96 91.95 380.46 96.99 380.13 99.57C379.72 102.76 378.72 104.81 375.84 105.69C372.96 106.57 370.64 105.95 370.64 105.95Z" fill="#EBB373"/>
<path opacity="0.3" d="M371.49 91.17C371.37 91.17 371.26 91.08 371.24 90.95C371 88.92 370.85 86.85 370.8 84.8C370.8 84.66 370.91 84.55 371.04 84.54C371.21 84.54 371.29 84.65 371.3 84.78C371.35 86.82 371.5 88.87 371.74 90.88C371.76 91.02 371.66 91.14 371.52 91.16H371.49V91.17Z" fill="#263238"/>
<path opacity="0.3" d="M370.21 92.66C370.11 92.66 370.01 92.6 369.98 92.49C369.93 92.36 370 92.22 370.13 92.17C372.65 91.26 375.48 91.1 378.09 91.74C378.22 91.77 378.31 91.91 378.27 92.04C378.24 92.17 378.1 92.26 377.97 92.22C375.46 91.61 372.74 91.75 370.3 92.63C370.27 92.64 370.24 92.65 370.22 92.65L370.21 92.66Z" fill="#263238"/>
<path opacity="0.3" d="M373.48 102.51C373.35 102.51 373.24 102.41 373.23 102.28C373.17 101.27 372.73 100.27 372.04 99.53C371.34 98.79 370.37 98.3 369.36 98.17C369.22 98.15 369.13 98.03 369.14 97.89C369.15 97.75 369.29 97.65 369.42 97.67C370.56 97.81 371.61 98.35 372.4 99.18C373.17 100 373.66 101.12 373.73 102.24C373.73 102.38 373.63 102.5 373.5 102.51H373.48Z" fill="#263238"/>
<path d="M298.45 261.01L291.63 260.25C290.39 266.3 289.93 272.49 290.26 278.66C290.5 282.67 296.97 287.2 296.97 287.2C296.97 287.2 299.24 291.95 300.51 290.48C301.78 289.01 298.33 282.45 298.19 280.93C297.78 276.2 297.33 271.43 297.72 270.8C298.11 270.16 298.21 276.72 300.22 278.13C302.23 279.54 300.64 271.37 301.34 268.6C302.05 265.82 300.03 261.33 298.44 261.02L298.45 261.01Z" fill="#FFB573"/>
<path opacity="0.2" d="M314.3 236.42C314.2 236.42 314.1 236.36 314.07 236.26C314.02 236.13 314.09 235.99 314.22 235.94C325.27 231.85 334.89 224.16 341.31 214.29C341.39 214.17 341.54 214.14 341.66 214.22C341.78 214.3 341.81 214.45 341.73 214.57C335.25 224.53 325.54 232.29 314.39 236.42C314.36 236.43 314.33 236.44 314.3 236.44V236.42Z" fill="#263238"/>
<path d="M361.37 145.24C361.37 145.24 347.06 155.16 346.61 155.33L350.29 179.4C350 179.06 373.98 162.32 374.51 162.24C375.04 162.16 361.36 145.24 361.36 145.24H361.37Z" fill="#0F47AC"/>
<path opacity="0.2" d="M350.29 179.4L348.13 165.24L352.73 177.46L350.29 179.4Z" fill="black"/>
<path opacity="0.3" d="M361.37 145.24C361.37 145.24 347.06 155.16 346.61 155.33L350.29 179.4C350 179.06 373.98 162.32 374.51 162.24C375.04 162.16 361.36 145.24 361.36 145.24H361.37Z" fill="white"/>
<path d="M298.92 156.76C298.92 156.76 287.79 155.84 285.6 168.89C283.42 181.93 279.84 204.1 279.84 204.1L301.41 205.97C302.5 205.17 298.92 156.76 298.92 156.76Z" fill="#0F47AC"/>
<path opacity="0.3" d="M298.92 156.76C298.92 156.76 287.79 155.84 285.6 168.89C283.42 181.93 279.84 204.1 279.84 204.1L301.41 205.97C302.5 205.17 298.92 156.76 298.92 156.76Z" fill="white"/>
<path d="M364.91 249.6L353.81 202.41L346.61 155.34L330.58 155.19L316.63 154.85L298.92 156.77L292.89 179.44C292.89 179.44 297.84 212.71 297.99 214.44C298.17 216.56 300.53 254.81 300.53 254.81C325.33 256.44 365.59 251.41 364.91 249.61V249.6Z" fill="#0F47AC"/>
<path opacity="0.3" d="M364.91 249.6L353.81 202.41L346.61 155.34L330.58 155.19L316.63 154.85L298.92 156.77L292.89 179.44C292.89 179.44 297.84 212.71 297.99 214.44C298.17 216.56 300.53 254.81 300.53 254.81C325.33 256.44 365.59 251.41 364.91 249.61V249.6Z" fill="white"/>
<path opacity="0.2" d="M297.66 205.65L301.42 205.97L301.2 177.46L305.08 212.41L297.87 213.42L297.15 208.36L297.66 205.65Z" fill="black"/>
<path d="M281.98 204.29L282.04 223.96L291.32 264.13L299.7 262.61L295.94 222.59L298.55 205.73L281.98 204.29Z" fill="#FFB573"/>
<path d="M314.47 155.12C314.47 155.12 315.37 148.68 311.6 137.52C311.6 137.51 312.18 137.22 312.18 137.21C311.66 135.65 311.12 134.21 310.61 132.96C310.6 132.92 310.6 132.91 310.6 132.91L326.48 141.79C326.27 145.42 327.88 152.35 328.78 155.27C328.78 155.27 332.14 161.68 325.04 162.23C319.85 162.63 314.47 155.13 314.47 155.13V155.12Z" fill="#FFB573"/>
<path opacity="0.2" d="M326.96 146.86L317.97 145.24C318.9 147.97 321.49 151.15 327.7 151.15C327.7 151.15 326.95 148.08 326.96 146.86Z" fill="black"/>
<path d="M336 114.6C337.98 118.1 338.96 125.94 333.19 124.55C327.42 123.16 332.6 108.59 336 114.6Z" fill="#263238"/>
<path d="M310.15 125.4C311.62 135.16 312.25 140.69 317.66 145.25C325.79 152.1 337.25 146.67 338.73 136.64C340.06 127.61 337.43 113.17 327.47 110.21C317.66 107.29 308.68 115.65 310.15 125.41V125.4Z" fill="#FFB573"/>
<path d="M307.08 112.59C307.95 107.06 314.68 103.46 318.71 105.89C319.31 106.25 315.17 108.1 315.64 107.88L316.05 115.88C315.46 115.8 314.37 116.58 313.94 118.44C313.94 118.44 316.3 128.7 312.42 133.43C301.37 129.47 300.01 115.5 307.09 112.58L307.08 112.59Z" fill="#263238"/>
<path d="M307 133.92C308.01 136.38 310.06 138.13 312.09 138.92C315.15 140.12 317.03 137.45 316.48 134.38C315.98 131.62 313.8 127.67 310.59 127.79C307.43 127.9 305.85 131.11 307 133.92Z" fill="#FFB573"/>
<path d="M324.439 126.99C324.529 127.99 325.129 128.76 325.789 128.69C326.449 128.63 326.909 127.76 326.819 126.76C326.729 125.76 326.129 124.99 325.469 125.06C324.809 125.12 324.349 125.99 324.439 127V126.99Z" fill="#263238"/>
<path d="M334.31 126.31C334.4 127.31 335 128.08 335.66 128.01C336.32 127.95 336.78 127.08 336.69 126.07C336.6 125.07 336 124.3 335.34 124.37C334.68 124.43 334.22 125.3 334.31 126.3V126.31Z" fill="#263238"/>
<path d="M331.06 126.04C331.06 126.04 334.68 130.75 335.88 132.69C334.59 134.08 332.14 133.71 332.14 133.71L331.07 126.04H331.06Z" fill="#D58745"/>
<path d="M321.89 123.68C322.05 123.72 322.23 123.68 322.35 123.54C323.8 122.01 325.52 122.29 325.54 122.29C325.8 122.34 326.039 122.16 326.089 121.91C326.139 121.65 325.969 121.41 325.709 121.36C325.619 121.34 323.47 120.99 321.67 122.89C321.49 123.08 321.499 123.38 321.689 123.56C321.749 123.62 321.819 123.66 321.899 123.67L321.89 123.68Z" fill="#263238"/>
<path d="M338.2 121.86C338.29 121.84 338.37 121.8 338.44 121.73C338.62 121.54 338.62 121.24 338.44 121.06C336.58 119.24 334.47 119.71 334.37 119.72C334.12 119.78 333.96 120.03 334.01 120.29C334.07 120.54 334.31 120.7 334.57 120.65C334.66 120.63 336.29 120.28 337.78 121.74C337.9 121.85 338.06 121.89 338.21 121.86H338.2Z" fill="#263238"/>
<path d="M342.789 109.78C342.309 107.27 339.599 105.29 337.129 105.95C337.929 104.31 337.209 102.11 335.609 101.25C333.999 100.39 331.769 101.02 330.849 102.59C330.759 101.06 329.129 99.94 327.599 100.06C326.079 100.18 324.769 101.28 323.989 102.6C323.519 103.41 323.169 104.35 322.409 104.9C321.219 105.76 319.589 105.32 318.119 105.21C315.659 105.02 313.139 105.96 311.389 107.7C309.649 109.45 308.709 111.97 308.899 114.43C307.539 114.8 306.869 115.9 305.979 116.99L313.499 118.19C315.609 114.25 321.299 117.3 324.149 118.38C326.199 119.16 328.219 119.22 329.769 119.16C331.329 119.1 332.029 117.96 332.049 116.41C334.429 117.33 337.229 117.39 339.479 116.17C341.719 114.94 343.239 112.3 342.759 109.79L342.789 109.78Z" fill="#263238"/>
<path d="M307.53 113.05C307.53 113.05 307.43 113.04 307.39 113.01C305.92 112.01 304.18 111.37 302.85 111.35C302.71 111.35 302.6 111.23 302.6 111.1C302.6 110.97 302.75 110.84 302.85 110.85C304.3 110.88 306.1 111.53 307.66 112.6C307.77 112.68 307.8 112.83 307.73 112.95C307.68 113.02 307.6 113.06 307.52 113.06L307.53 113.05Z" fill="#263238"/>
<path d="M307.349 112.95C307.269 112.95 307.189 112.91 307.139 112.84C306.029 111.2 305.559 109.13 305.839 107.17C305.859 107.03 305.989 106.94 306.119 106.96C306.259 106.98 306.349 107.11 306.329 107.24C306.059 109.08 306.509 111.02 307.549 112.56C307.629 112.67 307.599 112.83 307.479 112.91C307.439 112.94 307.389 112.95 307.339 112.95H307.349Z" fill="#263238"/>
<path opacity="0.2" d="M313.74 133.8C313.62 133.8 313.52 133.72 313.5 133.6C313.34 132.81 312.97 132.06 312.43 131.45C312.08 131.06 311.52 130.56 310.8 130.45C310.16 130.35 309.5 130.63 309.22 131.12C309.15 131.24 309 131.28 308.88 131.22C308.76 131.15 308.72 131 308.78 130.88C309.16 130.2 310.01 129.82 310.87 129.96C311.74 130.09 312.4 130.67 312.8 131.12C313.39 131.79 313.8 132.62 313.98 133.5C314.01 133.64 313.92 133.77 313.78 133.79C313.76 133.79 313.75 133.79 313.73 133.79L313.74 133.8Z" fill="#263238"/>
<path d="M329.02 137C327.61 137 326.2 136.47 325.15 135.52C325.05 135.43 325.04 135.27 325.13 135.17C325.22 135.07 325.38 135.06 325.48 135.15C326.58 136.15 328.12 136.64 329.59 136.47C329.72 136.46 329.85 136.55 329.87 136.69C329.89 136.83 329.79 136.95 329.65 136.97C329.44 136.99 329.23 137.01 329.01 137.01L329.02 137Z" fill="#263238"/>
<path opacity="0.2" d="M134.38 217.01L131.94 255.39L109.98 252.77V248.83L134.38 217.01Z" fill="black"/>
<path d="M123.76 217.97C122.9 208.07 119.44 189.92 113.49 170.87C111.55 164.67 118.47 157.82 118.47 157.82C118.47 157.82 122.94 157.46 123.76 157.37C124.66 157.26 128.01 155.89 128.93 155.81C135.88 155.22 138.91 155.25 145.12 155.61C146.68 155.7 148.76 155.88 150.33 156.01C150.84 156.06 153.89 156.9 154.38 156.95C154.38 156.95 163.3 167.56 163.78 175.05C164.04 179.23 166.03 181.04 165.81 191.04C165.77 197.84 160.92 207.74 160.48 217.29L123.77 217.96L123.76 217.97Z" fill="white"/>
<path d="M135.92 185.24C135.45 169.96 129.3 163.35 128.48 159.64C128.26 158.67 128.74 156.46 129.21 155.77L125.06 156.24C118.61 157.51 114.62 157.47 111.4 161.77C110.78 162.6 111.55 168.54 111.6 169.41C111.68 170.98 112.77 175.81 114.23 181.62C115.23 185.66 116.41 190.19 117.54 194.46C118.99 199.91 120.2 201.33 120.67 203.07L105.7 247.24C105.28 248.42 106.07 249.68 107.32 249.82L128.81 252.07C129.86 252.18 130.81 251.43 130.93 250.38C132 241.41 136.46 202.81 135.92 185.24Z" fill="#0F47AC"/>
<path d="M155.85 156.3C155.85 156.3 161.13 155.26 166.85 163.58C172.56 171.9 174.18 208.31 174.18 208.31L161.76 208.95L163.57 173.47L155.86 156.3H155.85Z" fill="#0F47AC"/>
<path d="M164.16 215.18C164.16 215.18 168.67 187.23 167.47 180.24C166.27 173.25 155.85 156.29 155.85 156.29L151.09 155.96L147.54 155.77C147.54 155.77 158.72 160.96 161.91 172.28C164.01 179.72 159.56 211.64 160.04 217.31L162.46 229.05L168.44 228.78L164.16 215.18Z" fill="#0F47AC"/>
<path opacity="0.3" d="M165.25 208.24L167.59 186.69L168.45 208.94C168.45 208.94 166.21 208.83 165.25 208.24Z" fill="black"/>
<path opacity="0.3" d="M124.02 202.49L122.18 181.9L120.77 204.32L142.05 212.97L124.02 202.49Z" fill="black"/>
<path d="M115.6 158.49C115.6 158.49 108.84 160.15 107.55 167.53C106.25 174.91 104.53 211.79 106 214.13C107.47 216.47 148.57 229.68 148.57 229.68L152.97 218.26L121.92 203.24C121.92 203.24 122.17 192.7 122.43 184.49C122.56 180.15 122.7 176.46 122.79 175.32C123.07 172.03 115.6 158.49 115.6 158.49Z" fill="#0F47AC"/>
<path d="M152.29 220.04C152.29 220.04 165.21 223.14 168.21 225.72C169.54 226.86 169.5 228.74 169.5 228.74L148.58 229.67L152.29 220.04Z" fill="#B97964"/>
<path opacity="0.3" d="M115.48 218.37C115.89 218.52 133.67 224.85 133.67 224.85V227.08L114.57 221.05L115.48 218.37Z" fill="black"/>
<path d="M152.63 109.64C158.56 113.6 160.25 119.28 160.17 123.4C159.44 128.96 157.51 132.9 156.01 138.3L141.27 105.76C144.71 106.44 146.26 105.74 152.63 109.64Z" fill="#263238"/>
<path d="M145.24 106.77C139.47 104.08 133.8 107.25 130.49 109.46C126.87 112.53 124.74 116.99 124.63 121.73C124.63 126.16 124.63 131.53 127.32 133.84C128.83 135.18 130.82 135.82 132.83 135.61L154.75 115.39C152.37 111.75 149.09 108.79 145.24 106.77Z" fill="#263238"/>
<path d="M145.61 166.68C143.92 168.42 142.39 167.84 140.14 166.92C126.76 162.11 130.72 155.65 130.72 155.65C133.26 152.67 133.37 149.11 132.44 143.68C132.42 143.52 132.42 143.36 132.42 143.2C132.42 142.48 132.66 141.77 133.09 141.18C134.21 139.54 136.44 139.12 138.08 140.24L144.07 141.96C144.09 142.04 144.1 142.12 144.12 142.22C144.14 145.19 144.05 147.5 144.07 149.31C144.11 149.53 144.07 149.76 144.08 149.97C144.12 150.19 144.11 150.42 144.11 150.64C144.25 153.13 148.46 156.78 150.17 157.64C151.21 158.23 151.32 160.83 145.6 166.69L145.61 166.68Z" fill="#B97964"/>
<path opacity="0.2" d="M144.07 141.93C144.07 142.02 144.09 142.11 144.12 142.2C144.14 145.17 144.05 147.48 144.07 149.29C144.06 149.51 144.07 149.73 144.08 149.95C144.09 150.18 144.12 150.41 144.16 150.64C139.61 149.4 135.54 146.8 132.52 143.18C132.52 142.47 132.74 141.77 133.14 141.17C134.24 139.52 136.47 139.08 138.12 140.17L144.07 141.92V141.93Z" fill="black"/>
<path d="M127.92 123.02C128.15 133.27 128.02 137.59 132.89 143.16C140.22 151.52 152.49 149.29 155.32 139.23C157.79 130.18 157.05 114.97 147.39 110.27C137.73 105.57 127.7 112.76 127.92 123.02Z" fill="#B97964"/>
<path d="M123.38 131.8C124.42 134.01 126.28 135.5 128.05 136.11C130.71 137.02 132.49 132.77 131.79 129.96C131.16 127.43 128.62 125.58 125.93 125.89C123.28 126.2 122.19 129.27 123.38 131.8Z" fill="#B97964"/>
<path opacity="0.2" d="M129.18 131.99C129.04 131.99 128.93 131.87 128.93 131.74C128.95 130.82 128.59 129.91 127.95 129.25C127.31 128.59 126.42 128.2 125.5 128.18C125.36 128.18 125.25 128.06 125.26 127.92C125.26 127.78 125.37 127.68 125.51 127.68C126.56 127.7 127.58 128.15 128.31 128.91C129.04 129.67 129.44 130.7 129.43 131.75C129.43 131.89 129.32 132 129.18 132V131.99Z" fill="#263238"/>
<path d="M141.27 127.44C141.23 128.53 141.74 129.48 142.42 129.55C143.1 129.62 143.68 128.79 143.72 127.7C143.76 126.61 143.25 125.66 142.57 125.59C141.89 125.52 141.31 126.35 141.27 127.44Z" fill="#263238"/>
<path d="M151.41 128.26C151.37 129.32 151.89 130.23 152.56 130.31C153.23 130.38 153.81 129.58 153.85 128.52C153.89 127.46 153.37 126.55 152.7 126.47C152.03 126.4 151.45 127.2 151.41 128.26Z" fill="#263238"/>
<path d="M139.44 123.46C139.57 123.49 139.71 123.46 139.82 123.37C141.53 122.04 143.27 122.7 143.29 122.71C143.55 122.81 143.83 122.68 143.91 122.42C143.99 122.16 143.85 121.86 143.59 121.75C143.5 121.71 141.32 120.88 139.2 122.53C138.99 122.69 138.96 123.02 139.13 123.25C139.21 123.36 139.33 123.43 139.45 123.45L139.44 123.46Z" fill="#263238"/>
<path d="M155.26 123.39C155.37 123.36 155.46 123.29 155.51 123.19C155.62 122.96 155.53 122.66 155.31 122.51C153.07 120.99 151.24 121.85 151.17 121.89C150.95 122 150.88 122.28 151 122.53C151.12 122.78 151.4 122.9 151.62 122.79C151.69 122.76 153.12 122.11 154.9 123.32C155.02 123.4 155.14 123.42 155.26 123.39Z" fill="#263238"/>
<path d="M148.69 127.53C148.69 127.53 149.97 131.52 151.59 134.07C151.87 134.52 151.62 135.11 151.11 135.25C149.8 135.61 148.35 135.06 148.35 135.06L148.69 127.53Z" fill="#A24E3F"/>
<path d="M142.17 125.6L144.58 125.24C144.58 125.24 143.14 126.89 142.17 125.6Z" fill="#263238"/>
<path d="M152.45 126.48L154.86 126.12C154.86 126.12 153.42 127.77 152.45 126.48Z" fill="#263238"/>
<path d="M147.69 137.87C146.84 138.82 145.7 140.75 145.7 140.75C145.51 140.68 145.31 140.61 145.13 140.52C142.54 139.48 141.68 138.14 141.51 136.97C141.42 136.33 141.55 135.74 141.71 135.28C141.89 134.75 142.15 134.41 142.15 134.41C143.19 135.78 145.54 136.94 146.81 137.51C147.34 137.75 147.69 137.88 147.69 137.88V137.87Z" fill="#263238"/>
<path d="M146.81 137.5L146.2 138.33C143.76 137.34 142.18 136.32 141.71 135.27C141.89 134.74 142.15 134.4 142.15 134.4C143.19 135.77 145.54 136.93 146.81 137.5Z" fill="white"/>
<path d="M145.12 140.52C142.53 139.48 141.67 138.14 141.5 136.97C142.37 137.36 143.38 137.92 144.15 138.7C144.74 139.29 145.01 139.93 145.12 140.52Z" fill="#DE5753"/>
<path d="M131.47 125.52C131.47 125.52 137.32 118.83 137.51 113.11C137.51 113.11 158.45 108.46 156.52 126.54C156.52 126.54 161.05 110.91 143.94 108.36C126.83 105.81 123.3 128.15 131.05 135.94C131.08 135.86 127.85 129.71 131.47 125.52Z" fill="#263238"/>
<path d="M113.21 111.91C113.61 116.57 117.71 120.03 122.38 119.63C127.04 119.23 130.5 115.13 130.1 110.46C129.72 106.08 126.06 102.71 121.66 102.71C116.8 102.94 113.03 107.04 113.22 111.91H113.21Z" fill="#263238"/>
<path d="M151.71 110.6C153.96 112.76 155.47 115.58 156.01 118.66C156.01 120.89 152.98 122.5 152.98 122.5L149.27 117.64V121.91C143.2 121.24 139.69 118.02 137.61 113.37L140.99 107.33C140.99 107.33 149.69 108.86 151.71 110.61V110.6Z" fill="#263238"/>
<path d="M122.78 116.79C122.26 119.21 120.83 121.42 118.84 122.88C119.91 122.97 121.01 122.7 121.92 122.14C121.88 123.01 121.68 123.88 121.35 124.69C123.81 122.65 125.26 119.44 125.17 116.25L122.78 116.79Z" fill="#263238"/>
<path d="M236.35 202.81H178.34V209.02H236.35V202.81Z" fill="#0F47AC"/>
<path d="M198.27 203.46H178.34V208.37H198.27V203.46Z" fill="white"/>
<path opacity="0.3" d="M205.14 202.81H203.36V209.02H205.14V202.81Z" fill="white"/>
<path opacity="0.3" d="M232.28 202.81H230.5V209.02H232.28V202.81Z" fill="white"/>
<path opacity="0.2" d="M199.4 202.81H178.34V209.02H199.4V202.81Z" fill="black"/>
<path d="M428.68 223.08H47.6899V448.48H428.68V223.08Z" fill="#263238"/>
<path opacity="0.3" d="M118.9 223.08H47.6899V448.48H118.9V223.08Z" fill="black"/>
<path opacity="0.3" d="M428.68 223.08H47.6899V228.11H428.68V223.08Z" fill="black"/>
<path d="M429.87 208.7H41.6001V223.08H429.87V208.7Z" fill="#263238"/>
<path opacity="0.3" d="M429.87 208.7H41.6001V223.08H429.87V208.7Z" fill="black"/>
<path opacity="0.3" d="M123.57 208.7H40.98V223.08H123.57V208.7Z" fill="black"/>
<path opacity="0.3" d="M269.71 252.6H147.8V343.46H269.71V252.6Z" fill="black"/>
<path d="M264.47 258.22H153.03V337.83H264.47V258.22Z" fill="#263238"/>
<path opacity="0.3" d="M147.8 343.46L153.03 337.84H264.47L269.71 343.46H147.8Z" fill="white"/>
<path opacity="0.3" d="M147.8 252.6L153.07 258.18L264.47 258.22L269.71 252.6H147.8Z" fill="black"/>
<path opacity="0.3" d="M413.22 252.6H291.31V343.46H413.22V252.6Z" fill="black"/>
<path d="M407.99 258.22H296.55V337.83H407.99V258.22Z" fill="#263238"/>
<path opacity="0.3" d="M291.31 343.46L296.55 337.84H407.99L413.22 343.46H291.31Z" fill="white"/>
<path opacity="0.3" d="M291.31 252.6L296.58 258.18L407.99 258.22L413.22 252.6H291.31Z" fill="black"/>
<path opacity="0.3" d="M428.8 223.08H47.8101V448.48H428.8V223.08Z" fill="black"/>
<path d="M379.44 206.41C378.77 213.16 378.02 220.34 373.93 226.01C370.13 231.27 363.52 233.95 357.12 232.88C356.65 232.8 356.44 233.52 356.92 233.6C363.33 234.67 369.98 232.22 374.03 227.11C378.66 221.26 379.48 213.58 380.19 206.41C380.24 205.93 379.49 205.93 379.44 206.41Z" fill="#263238"/>
<path d="M353.23 240.16C353.7 237.72 355.59 236.06 357.53 235.4C359.47 234.75 361.52 234.88 363.53 234.73C368.36 234.38 373.32 232.18 376.39 227.53C379.51 222.81 378.69 216.85 379.01 210.75C379.33 204.71 379.55 199.28 381.51 191.8C382.72 187.18 390.14 178.5 397.95 181.72L410.86 188.15C416.41 196.15 417.72 201.11 419.38 211.48C421.04 221.85 418.6 236.02 414.16 245.03C410.91 251.64 406.06 256.8 401.03 261.35C397.19 264.82 392.91 268.13 388.17 268.19C385.33 268.23 382.58 267.09 379.9 265.97C375.64 264.19 371.39 262.42 367.13 260.64C365.13 259.8 363.05 258.91 361.56 257.05C360.07 255.19 359.38 252.04 360.59 249.89C358.73 249.09 356.81 248.25 355.31 246.66C353.8 245.07 352.77 242.55 353.23 240.15V240.16Z" fill="#263238"/>
<path d="M385.529 230.61C385.529 230.61 389.409 232.52 394.189 236.64C395.189 237.5 396.279 238.24 397.449 238.86C400.589 240.53 403.439 241.48 404.219 239.97C404.389 239.64 404.519 239.28 404.619 238.9C405.279 236.37 403.669 232.89 401.599 230.68C399.589 228.53 399.539 227.78 399.959 225.29C400.179 223.88 400.689 222.43 401.279 221.01L398.619 219.41L389.129 209.83C390.219 215.71 390.539 227.14 385.539 230.61H385.529Z" fill="#E9B376"/>
<path opacity="0.2" d="M399.879 225.84C397.269 224.29 394.399 221.6 394.749 218.53C394.899 217.24 395.179 216.01 395.489 215.23L400.789 222.25C400.349 223.38 400.199 224.13 399.879 225.84Z" fill="black"/>
<path d="M387.289 199.03C388.179 208.79 388.36 212.92 393.39 218.04C400.96 225.73 412.609 223.15 414.619 213.48C416.429 204.78 414.659 190.29 405.079 186.19C395.639 182.15 386.399 189.28 387.289 199.04V199.03Z" fill="#E9B376"/>
<path d="M399.919 202.2C399.969 203.23 400.529 204.08 401.169 204.09C401.809 204.1 402.289 203.28 402.239 202.25C402.189 201.22 401.629 200.37 400.989 200.36C400.349 200.35 399.869 201.17 399.919 202.2Z" fill="#263238"/>
<path d="M409.539 202.17C409.589 203.17 410.149 203.99 410.789 204.01C411.429 204.02 411.909 203.22 411.859 202.22C411.809 201.22 411.249 200.4 410.609 200.39C409.969 200.38 409.489 201.18 409.539 202.18V202.17Z" fill="#263238"/>
<path d="M397.889 198.61C398.009 198.62 398.139 198.59 398.239 198.5C399.739 197.11 401.439 197.6 401.449 197.6C401.699 197.67 401.949 197.53 402.009 197.28C402.069 197.02 401.909 196.76 401.649 196.68C401.559 196.65 399.439 196.04 397.569 197.77C397.379 197.94 397.379 198.25 397.569 198.45C397.659 198.55 397.769 198.6 397.889 198.62V198.61Z" fill="#263238"/>
<path d="M412.779 197.28C412.879 197.25 412.959 197.17 412.999 197.07C413.089 196.85 412.979 196.57 412.759 196.44C410.529 195.19 408.879 196.14 408.809 196.18C408.609 196.3 408.569 196.57 408.699 196.8C408.839 197.03 409.109 197.11 409.299 197C409.359 196.96 410.659 196.24 412.429 197.24C412.539 197.3 412.669 197.31 412.769 197.28H412.779Z" fill="#263238"/>
<path d="M406.929 201.7C406.929 201.7 408.459 205.35 410.179 207.63C410.479 208.03 410.289 208.61 409.829 208.78C408.629 209.22 407.219 208.82 407.219 208.82L406.939 201.7H406.929Z" fill="#D58745"/>
<path d="M400.629 200.4L402.869 199.87C402.869 199.87 401.649 201.54 400.629 200.4Z" fill="#263238"/>
<path d="M410.379 200.41L412.619 199.88C412.619 199.88 411.399 201.55 410.379 200.41Z" fill="#263238"/>
<path d="M415.309 201.45C415.309 201.45 410.899 189.16 403.409 187.32C403.069 187.24 398.419 197.95 393.879 200.03C393.879 200.03 392.859 207.49 391.359 208.01C389.859 208.53 386.099 200.38 386.099 200.38C386.099 200.38 379.949 186.93 388.589 183.28C397.229 179.63 406.219 180 411.569 187.31C416.929 194.62 416.039 199.43 415.309 201.44V201.45Z" fill="#263238"/>
<path d="M384.609 206.98C385.759 208.98 387.629 210.24 389.349 210.67C391.929 211.32 393.269 207.17 392.379 204.58C391.589 202.25 389.049 200.71 386.539 201.22C384.059 201.72 383.289 204.7 384.609 206.99V206.98Z" fill="#E9B376"/>
<path opacity="0.2" d="M390.62 206.88C390.49 206.88 390.38 206.78 390.37 206.65C390.31 205.79 389.91 204.96 389.26 204.39C388.6 203.81 387.45 203.55 386.88 203.58C386.75 203.58 386.62 203.48 386.62 203.35C386.62 203.21 386.72 203.09 386.85 203.08C387.5 203.03 388.82 203.34 389.59 204.01C390.34 204.67 390.81 205.61 390.87 206.61C390.87 206.75 390.78 206.87 390.64 206.88H390.62Z" fill="#263238"/>
<path d="M401.85 230.19C401.85 230.19 408.4 231.49 414.04 235.24C419.68 238.99 425.67 259.97 425.67 259.97L414.25 260.93L401.85 230.19Z" fill="#0F47AC"/>
<path opacity="0.7" d="M401.85 230.19C401.85 230.19 408.4 231.49 414.04 235.24C419.68 238.99 425.67 259.97 425.67 259.97L414.25 260.93L401.85 230.19Z" fill="white"/>
<path d="M373.39 258.24L369.51 233.09C373.49 229.68 387.39 228.63 387.39 228.63C396.02 232.52 402.02 235.54 400.94 229.22L411.87 240.73C411.87 240.73 417.49 246.67 417.25 254.73C417.06 260.91 414.54 279.49 415.41 287.08L417.5 303.69C395.03 321.28 374.34 305.11 374.34 305.11C375.42 301.91 379.69 297.17 380.22 294.03C380.01 290 381.78 287.01 379.45 278.63C377.7 272.32 373.38 259.14 373.4 258.24H373.39Z" fill="#0F47AC"/>
<g opacity="0.7">
<path d="M373.39 258.24L369.51 233.09C373.49 229.68 387.39 228.63 387.39 228.63C396.02 232.52 402.02 235.54 400.94 229.22L411.87 240.73C411.87 240.73 417.49 246.67 417.25 254.73C417.06 260.91 414.54 279.49 415.41 287.08L417.5 303.69C395.03 321.28 374.34 305.11 374.34 305.11C375.42 301.91 379.69 297.17 380.22 294.03C380.01 290 381.78 287.01 379.45 278.63C377.7 272.32 373.38 259.14 373.4 258.24H373.39Z" fill="white"/>
</g>
<path d="M372.95 231.28C372.95 231.28 368.35 231.52 365.68 235.97C363.97 238.82 358 257.44 354.23 269.45C352.31 275.56 353.92 280.82 359.01 282.3H393.09L394.04 274.71L368.56 271.5C368.56 271.5 376.07 249.8 377.19 243.24C378.31 236.69 372.95 231.28 372.95 231.28Z" fill="#E9B376"/>
<path opacity="0.2" d="M368.53 271.51C368.53 271.51 365.46 271.5 363.56 272.74C363.56 272.74 364.63 269.29 369.49 268.64L368.52 271.51H368.53Z" fill="black"/>
<path d="M356.67 255.83L373.39 261.21L378.77 242.09C378.77 242.09 374.49 231.24 374 231C373.51 230.76 367.03 231.32 364.68 237.55C362.33 243.78 356.65 255.83 356.65 255.83H356.67Z" fill="#0F47AC"/>
<path opacity="0.7" d="M356.67 255.83L373.39 261.21L378.77 242.09C378.77 242.09 374.49 231.24 374 231C373.51 230.76 367.03 231.32 364.68 237.55C362.33 243.78 356.65 255.83 356.65 255.83H356.67Z" fill="white"/>
<path d="M423.43 260.16C423.43 260.16 427.14 269.49 427.91 271.91C428.68 274.32 431.13 279.79 426.78 281.4C422.44 283.01 393.49 281.4 393.49 281.4V273.68C393.49 273.68 415.45 271.08 415.89 270.69C416.32 270.3 416.8 260.72 416.8 260.72L423.43 260.16Z" fill="#E9B376"/>
<g opacity="0.2">
<path d="M408.42 277.06C408.17 276.53 407.52 276.19 406.97 276.39C407.53 275.73 408.11 275.04 408.35 274.2C408.59 273.36 408.39 272.34 407.66 271.87L402.38 272.73C402.98 275.36 403.7 278.44 404.3 281.06C404.35 281.28 404.41 281.51 404.55 281.69C404.98 282.24 405.85 281.99 406.48 281.69C406.9 281.5 407.35 281.27 407.53 280.85C407.72 280.43 407.42 279.8 406.96 279.88C407.47 279.59 407.95 279.22 408.25 278.72C408.56 278.22 408.66 277.58 408.42 277.05V277.06Z" fill="black"/>
</g>
<path d="M406.13 212C404.47 212 403.19 211.18 402.69 210.42C402.61 210.3 402.65 210.15 402.76 210.07C402.87 210 403.03 210.03 403.11 210.14C403.46 210.68 404.56 211.49 406.13 211.49C406.27 211.49 406.38 211.6 406.38 211.74C406.38 211.88 406.27 211.99 406.13 211.99V212Z" fill="#263238"/>
<path opacity="0.2" d="M373.75 259.78L377.1 248.04L375.31 265L373.75 259.78Z" fill="black"/>
<path opacity="0.2" d="M416.8 260.72C416.8 260.72 417.61 253.86 416.99 251.29C416.99 251.29 418.26 255.8 418.37 260.58L416.8 260.71V260.72Z" fill="black"/>
<path opacity="0.2" d="M415.9 270.68C415.9 270.68 419.67 270.82 421.67 272.75C421.67 272.75 421.05 268.97 416.22 269L415.9 270.69V270.68Z" fill="black"/>
<path d="M396.703 259.942L396.57 259.986C396.12 260.136 395.876 260.623 396.026 261.074L399.625 271.88C399.775 272.331 400.262 272.575 400.713 272.425L400.846 272.38C401.296 272.23 401.54 271.743 401.39 271.293L397.791 260.486C397.641 260.036 397.154 259.792 396.703 259.942Z" fill="#263238"/>
<path d="M391.11 274.34C391.11 274.34 396.95 268.99 397.97 269.49C398.99 269.99 399.81 270.51 399.81 270.51C399.81 270.51 404.85 268.86 405.35 270.25C405.84 271.64 405.02 272.35 405.02 272.35C405.02 272.35 407.14 272.81 406.55 274.36C405.97 275.91 405.51 276.49 405.51 276.49C405.51 276.49 406.76 277.38 406.28 278.61C405.8 279.84 404.73 279.96 404.73 279.96C404.73 279.96 406.74 281.61 405.12 282.11C404.25 282.38 392.55 282.2 391.67 281.89C389.82 281.22 391.1 274.34 391.1 274.34H391.11Z" fill="#EBB373"/>
<path d="M423.04 280.13H385.26V282.33H423.04V280.13Z" fill="white"/>
<path d="M290.34 250.07L278.8 257.41C278.8 257.41 286.12 284.44 288.42 288.07L302.8 281.23L290.33 250.07H290.34Z" fill="#E4897B"/>
<path d="M256.08 214.67C255.87 216.63 255.96 218.37 256.62 219.24C257.3 220.14 258.47 220.76 259.73 221.19C258.61 223.35 255.78 225.08 255.78 225.08H247.86C247.86 225.08 244.28 225.88 242.92 225.11C241.8 224.48 240.61 223.88 239.54 223.16C239 222.79 238.49 222.36 237.98 221.91C239.65 220.94 241.17 219.61 241.71 217.88C243.09 213.4 241.61 198.1 241.61 198.1L258.33 204.97C258.33 204.97 258.2 205.34 258.01 205.98C257.48 207.75 256.41 211.52 256.08 214.68V214.67Z" fill="#E4897B"/>
<path d="M266.12 172.95C265.66 172.37 266.93 159.27 244.37 165.79C227.62 170.63 233.95 183.76 233.95 183.76L253.1 169.93L266.12 172.96V172.95Z" fill="#263238"/>
<path opacity="0.2" d="M244.38 205.86C244.38 205.86 247.97 213.33 256.23 213.07C256.55 209.92 257.63 206.14 258.16 204.37C257.54 204.14 257.14 204 257.14 204L244.39 205.86H244.38Z" fill="black"/>
<path d="M265.68 170.27C265.68 170.27 270.55 184.04 264.06 190.93C257.58 197.82 252.53 171.42 252.53 171.42L265.68 170.26V170.27Z" fill="#263238"/>
<path d="M244.36 206.38C249.46 210.23 255.24 211.17 260.09 208.54C263.21 206.86 265.77 203.98 267 200.31C267.17 199.83 267.3 199.33 267.42 198.82C269.47 189.45 267.75 174.06 257.5 170.13C250.21 167.28 241.97 170.87 239.12 178.18C238.3 180.25 237.99 182.49 238.2 184.72C239.01 195.07 238.41 201.88 244.36 206.38Z" fill="#E4897B"/>
<path d="M252.23 187.41C252.18 188.49 252.84 189.37 253.56 189.35C254.28 189.33 254.83 188.43 254.81 187.35C254.8 186.27 254.19 185.39 253.48 185.41C252.77 185.43 252.21 186.31 252.23 187.41Z" fill="#263238"/>
<path d="M262.62 187.41C262.57 188.49 263.24 189.37 263.95 189.35C264.66 189.33 265.22 188.43 265.2 187.35C265.19 186.27 264.58 185.39 263.87 185.41C263.16 185.43 262.6 186.38 262.62 187.41Z" fill="#263238"/>
<path d="M260.53 187.6C261.59 190.16 262.99 192.57 264.71 194.75C263.55 195.61 262.07 195.92 260.66 195.59L260.53 187.6Z" fill="#DE5753"/>
<path d="M267.02 182.97C266.86 183.06 266.66 183.06 266.5 182.97C265.43 182.3 264.11 182.17 262.93 182.62C262.69 182.74 262.39 182.64 262.27 182.4C262.15 182.16 262.25 181.86 262.49 181.74C263.96 181.13 265.64 181.27 266.99 182.12C267.23 182.25 267.31 182.55 267.18 182.79C267.13 182.87 267.08 182.92 267.01 182.97H267.02Z" fill="#263238"/>
<path d="M252.04 183.53C251.94 183.53 251.84 183.5 251.76 183.44C251.58 183.24 251.59 182.93 251.79 182.74C252.96 181.64 254.59 181.19 256.16 181.52C256.42 181.59 256.58 181.86 256.51 182.13C256.43 182.39 256.17 182.54 255.9 182.48C254.66 182.25 253.38 182.63 252.46 183.49C252.33 183.57 252.18 183.58 252.04 183.53Z" fill="#263238"/>
<path d="M245.56 171.63L246.43 176.16C244.99 177.06 244.2 178.81 245.01 180.56C246.74 184.3 244.97 190.4 242.18 192.97C242.18 192.97 241.98 191.31 240.6 191.8C239.22 192.29 240.55 199.26 242.01 203.55C242.01 203.55 238.82 201.42 235.87 192.48C233.14 184.22 232.4 177.23 233.91 173.86L245.57 171.63H245.56Z" fill="#263238"/>
<path d="M233.84 193.32C235.04 195.64 237.11 197.4 239.6 198.2C242.9 199.24 244.66 196.3 243.85 193.12C243.1 190.3 240.48 186.27 237.12 186.65C233.75 187.03 232.42 190.44 233.85 193.31L233.84 193.32Z" fill="#E4897B"/>
<path d="M265.68 170.27C266.26 171.35 264.42 175.32 260.25 177.23C256.07 179.14 260.52 174.91 260.52 174.91C260.52 174.91 252.13 177.79 251.9 176.71C251.67 175.63 254.26 174.07 254.26 174.07C254.26 174.07 247.27 177.36 241.61 175.96C235.94 174.56 246.27 165.18 252.85 165.37C259.43 165.56 263.94 167 265.68 170.27Z" fill="#263238"/>
<path opacity="0.1" d="M241.38 193.91C241.07 192.23 240.01 190.74 238.52 189.9C237.94 189.58 237.16 189.37 236.7 189.78L236.37 189.4C236.93 188.91 237.83 188.94 238.77 189.46C240.38 190.37 241.54 191.99 241.88 193.81L241.39 193.9L241.38 193.91Z" fill="#263238"/>
<path d="M257.15 198.48C256.45 198.49 255.75 198.37 255.13 198.02C254.36 197.59 253.79 196.91 253.34 196.16C253.09 195.75 252.44 196.12 252.69 196.54C253.2 197.39 253.87 198.18 254.75 198.67C255.48 199.08 256.31 199.25 257.14 199.23C257.62 199.22 257.62 198.47 257.14 198.48H257.15Z" fill="#263238"/>
<path d="M274.84 219.54C268.14 222.6 264.84 235.96 277.6 265.38L296.59 252.78C294.22 245.47 291.66 241.61 287.74 232.7C282.48 220.24 274.83 219.54 274.83 219.54H274.84Z" fill="#0F47AC"/>
<path d="M271.15 218.71C266.41 218.37 247.46 216.26 228.16 220.16L230.03 288.52C230.03 288.52 229.07 313.67 230.03 315.95C250.3 324.24 275.6 312.17 288.42 303.9C288.28 304.23 284.89 295.18 284.89 295.18C282.53 273.39 278.75 239.41 275.17 219.8C275.08 219.32 271.62 218.74 271.15 218.71Z" fill="#0F47AC"/>
<path opacity="0.2" d="M230.29 261.69L231.35 261.83L234.93 242.68L236.47 264.19L230.03 264.68L230.29 261.69Z" fill="black"/>
<path d="M228.16 220.16C228.16 220.16 220.56 221.57 218.73 231.09C217.05 239.86 212.94 259.8 212.94 259.8L233.74 260.23L235.18 239.01L228.16 220.16Z" fill="#0F47AC"/>
<path d="M216.7 259.89L216.5 273.26C216.93 278.41 219.4 282.15 224.13 282.17L269.96 279.52L272 271.15L233.27 267.75L233.76 260.26L216.72 259.91L216.7 259.89Z" fill="#E4897B"/>
<path d="M292.63 270.83C291.29 269.7 283.6 266.51 280.61 265.87C277.63 265.22 266.27 270.72 266.27 270.72L265.28 277.75C265.28 277.75 267.18 279.69 270.2 279.49C271.94 279.38 275.95 277.08 275.95 277.08C275.95 277.08 276.65 278.33 277.73 279.45C278.92 280.69 280.65 281.96 281.62 280.92C282.58 279.89 279.78 276.27 279.37 275.75C279.79 276.27 282.76 279.88 284.22 278.67C285.63 277.51 282.46 273.82 282.46 273.82C282.46 273.82 284.11 275.37 284.96 276.16C285.81 276.95 287.34 276.86 287.21 275.19C287.06 273.26 285.34 271.34 285.34 271.34C285.34 271.34 287.09 271.73 290.44 273.05C292.85 274 293.77 271.77 292.64 270.82L292.63 270.83Z" fill="#E4897B"/>
<path opacity="0.1" d="M279.8 276.53C279.73 276.53 279.66 276.5 279.61 276.45C279.05 275.81 278.47 275.16 277.79 274.63C277.06 274.06 276.28 273.72 275.54 273.65C275.4 273.64 275.3 273.51 275.32 273.38C275.33 273.24 275.46 273.14 275.59 273.16C276.43 273.24 277.27 273.61 278.09 274.25C278.8 274.8 279.4 275.48 279.98 276.13C280.07 276.23 280.06 276.39 279.96 276.48C279.91 276.52 279.85 276.54 279.79 276.54L279.8 276.53Z" fill="#263238"/>
<path opacity="0.1" d="M282.87 274.39C282.8 274.39 282.73 274.36 282.68 274.31C282.12 273.67 281.53 273.01 280.86 272.49C280.11 271.91 279.36 271.58 278.61 271.51C278.47 271.5 278.37 271.37 278.39 271.24C278.4 271.1 278.53 271 278.66 271.02C279.5 271.1 280.34 271.47 281.16 272.11C281.87 272.66 282.47 273.34 283.05 273.99C283.14 274.09 283.13 274.25 283.03 274.34C282.98 274.38 282.92 274.4 282.86 274.4L282.87 274.39Z" fill="#263238"/>
<path opacity="0.1" d="M285.28 271.59C285.21 271.59 285.14 271.56 285.09 271.51C284.53 270.87 283.95 270.22 283.27 269.69C282.54 269.12 281.76 268.78 281.02 268.71C280.88 268.7 280.78 268.57 280.8 268.44C280.81 268.3 280.95 268.2 281.07 268.22C281.91 268.3 282.75 268.67 283.57 269.31C284.28 269.86 284.88 270.54 285.46 271.19C285.55 271.29 285.54 271.45 285.44 271.54C285.39 271.58 285.33 271.6 285.27 271.6L285.28 271.59Z" fill="#263238"/>
<path d="M325.41 282.26H286.69C286.02 282.26 285.48 281.82 285.49 281.28C285.49 281.18 285.51 281.08 285.55 280.98L302.77 241.49C303.2 240.36 304.5 239.59 305.97 239.59H344.71C345.37 239.59 345.9 240.02 345.9 240.54C345.9 240.65 345.88 240.76 345.83 240.86L328.61 280.35C328.17 281.47 326.88 282.24 325.41 282.25V282.26Z" fill="#263238"/>
<path opacity="0.7" d="M344.73 239.6H305.99C304.52 239.6 303.22 240.38 302.79 241.5L285.57 280.99C285.53 281.09 285.51 281.19 285.51 281.29C285.51 281.83 286.04 282.26 286.71 282.27H325.43C326.9 282.26 328.19 281.49 328.63 280.37L345.85 240.88C345.9 240.78 345.92 240.67 345.92 240.56C345.92 240.03 345.39 239.61 344.73 239.61V239.6Z" fill="white"/>
<path d="M320.73 261.81C319.89 263.71 318.2 265.01 316.93 264.74C315.67 264.48 315.33 262.75 316.14 260.85C316.95 258.95 318.67 257.68 319.93 257.94C321.19 258.2 321.57 259.86 320.72 261.81H320.73Z" fill="white"/>
<path opacity="0.3" d="M306.21 239.6H305.98C304.51 239.6 303.21 240.38 302.78 241.5L285.56 280.99C285.52 281.09 285.5 281.19 285.5 281.29C285.5 281.83 286.03 282.26 286.7 282.27H287.94L306.22 239.6H306.21Z" fill="black"/>
<path d="M248.79 282.26H289.1V279.54H251.51C250.01 279.54 248.79 280.76 248.79 282.26Z" fill="#263238"/>
<path opacity="0.7" d="M248.79 282.26H289.1V279.54H251.51C250.01 279.54 248.79 280.76 248.79 282.26Z" fill="white"/>
<path opacity="0.2" d="M278.75 240.73C278.32 240.37 281.26 262.96 281.26 262.96L285.26 260.31C285.26 260.31 279.19 241.09 278.76 240.73H278.75Z" fill="black"/>
<path d="M472.87 296.69H144.67V448.47H472.87V296.69Z" fill="#263238"/>
<path opacity="0.4" d="M206.01 296.69H144.67V448.47H206.01V296.69Z" fill="black"/>
<path opacity="0.3" d="M472.87 296.69H144.67V301.71H472.87V296.69Z" fill="black"/>
<path d="M475.48 282.33H141.01V296.7H475.48V282.33Z" fill="#263238"/>
<path opacity="0.4" d="M212.15 282.33H141.01V296.7H212.15V282.33Z" fill="black"/>
<path opacity="0.3" d="M333 321.13H227.98V411.89H333V321.13Z" fill="black"/>
<path d="M328.49 326.75H232.49V406.27H328.49V326.75Z" fill="#263238"/>
<path opacity="0.3" d="M227.98 411.89L232.49 406.27H328.49L333 411.89H227.98Z" fill="white"/>
<path opacity="0.3" d="M227.98 321.13L232.52 326.71L328.49 326.75L333 321.13H227.98Z" fill="black"/>
<path opacity="0.3" d="M456.63 321.13H351.61V411.89H456.63V321.13Z" fill="black"/>
<path d="M452.12 326.75H356.12V406.27H452.12V326.75Z" fill="#263238"/>
<path opacity="0.3" d="M351.61 411.89L356.12 406.27H452.12L456.63 411.89H351.61Z" fill="white"/>
<path opacity="0.3" d="M351.61 321.13L356.15 326.71L452.12 326.75L456.63 321.13H351.61Z" fill="black"/>
</svg>
