<svg width="33" height="33" viewBox="0 0 33 33" fill="none" xmlns="http://www.w3.org/2000/svg">
<path d="M24.8532 2.13675L30.591 8.118V30.8633H9.15649V30.9375H30.6642V8.19328L24.8532 2.13675Z" fill="#909090"/>
<path d="M24.782 2.0625H9.08325V30.8633H30.591V8.11903L24.782 2.0625Z" fill="#F4F4F4"/>
<path d="M8.92538 3.60938H2.33569V10.6497H23.0638V3.60938H8.92538Z" fill="#7A7B7C"/>
<path d="M23.1741 10.5301H2.46973V3.48459H23.1741V10.5301Z" fill="#DD2025"/>
<path d="M9.3349 4.67569H7.98706V9.62569H9.04719V7.95609L9.28128 7.9695C9.50882 7.96637 9.73427 7.9256 9.9485 7.84884C10.1368 7.7849 10.3099 7.68273 10.4569 7.54875C10.6076 7.42236 10.7261 7.26186 10.8024 7.08056C10.9068 6.78017 10.9438 6.46048 10.9107 6.14419C10.9048 5.91819 10.8651 5.69434 10.7931 5.48006C10.7282 5.32518 10.6316 5.18556 10.5096 5.07013C10.3876 4.95471 10.2429 4.86602 10.0846 4.80975C9.94821 4.75923 9.80682 4.72328 9.66284 4.7025C9.55408 4.68479 9.44407 4.67582 9.33387 4.67569M9.13897 7.04138H9.04719V5.51513H9.24622C9.33406 5.50879 9.4222 5.52228 9.50413 5.55458C9.58606 5.58689 9.65969 5.6372 9.71956 5.70178C9.84364 5.86783 9.90992 6.06994 9.90828 6.27722C9.90828 6.53091 9.90828 6.76088 9.67934 6.92278C9.51445 7.01361 9.32669 7.05549 9.13897 7.04138ZM12.9247 4.66228C12.8102 4.66228 12.6988 4.67053 12.6205 4.67363L12.375 4.67981H11.5707V9.62981H12.5173C12.8791 9.63912 13.2392 9.57782 13.5775 9.44934C13.8498 9.34178 14.0909 9.1677 14.2787 8.943C14.4627 8.71731 14.5941 8.45345 14.6634 8.17059C14.7447 7.85083 14.7842 7.52187 14.7809 7.19194C14.8011 6.80229 14.771 6.41166 14.6912 6.02972C14.6149 5.7489 14.4736 5.48996 14.2787 5.27381C14.1259 5.09903 13.9379 4.95846 13.727 4.86131C13.5464 4.77758 13.3563 4.71594 13.1608 4.67775C13.0831 4.66501 13.0045 4.65915 12.9257 4.66022M12.738 8.72025H12.6349V5.5605H12.6483C12.8609 5.53592 13.0761 5.57428 13.2671 5.67084C13.407 5.78256 13.521 5.92329 13.6012 6.08334C13.6878 6.25178 13.7377 6.43666 13.7476 6.62578C13.7569 6.85266 13.7476 7.03828 13.7476 7.19194C13.7514 7.36893 13.7401 7.54592 13.7136 7.72097C13.6811 7.90047 13.6224 8.07422 13.5393 8.23659C13.4454 8.38803 13.3172 8.51521 13.165 8.60784C13.0378 8.69035 12.8871 8.72876 12.736 8.71716M17.9747 4.67981H15.4688V9.62981H16.5289V7.66631H17.8695V6.74644H16.5289V5.59969H17.9727V4.67981" fill="#464648"/>
<path d="M22.4617 20.888C22.4617 20.888 25.7493 20.2919 25.7493 21.4149C25.7493 22.538 23.7126 22.0811 22.4617 20.888ZM20.031 20.9736C19.5086 21.0887 18.9996 21.2577 18.512 21.4778L18.9245 20.5497C19.337 19.6216 19.765 18.3562 19.765 18.3562C20.256 19.1855 20.8288 19.9635 21.4748 20.6786C20.9885 20.7511 20.5065 20.8502 20.031 20.9756V20.9736ZM18.7296 14.2704C18.7296 13.2918 19.0462 13.0247 19.2927 13.0247C19.5391 13.0247 19.8165 13.1433 19.8258 13.993C19.7454 14.8475 19.5665 15.6897 19.2927 16.5031C18.9163 15.8207 18.722 15.0528 18.7286 14.2735L18.7296 14.2704ZM13.9353 25.1151C12.9268 24.5118 16.0504 22.6545 16.6166 22.5947C16.6135 22.5957 14.9913 25.7462 13.9353 25.1151ZM26.7094 21.548C26.6991 21.4448 26.6063 20.3032 24.5747 20.3517C23.7279 20.3369 22.8814 20.3966 22.0451 20.5301C21.2344 19.7141 20.5366 18.7933 19.9702 17.7922C20.3268 16.7602 20.5429 15.6849 20.6127 14.5953C20.5828 13.3578 20.2868 12.6483 19.338 12.6586C18.3893 12.6689 18.2511 13.4991 18.3759 14.7345C18.498 15.5647 18.7286 16.3753 19.0617 17.1456C19.0617 17.1456 18.6234 18.5099 18.0438 19.867C17.4643 21.2242 17.0683 21.9357 17.0683 21.9357C16.0603 22.2634 15.1115 22.7509 14.2581 23.3795C13.4084 24.1704 13.0629 24.7778 13.5105 25.3852C13.8961 25.9091 15.246 26.0277 16.4526 24.4468C17.0926 23.6295 17.6782 22.771 18.2057 21.8769C18.2057 21.8769 20.0455 21.3727 20.6178 21.2345C21.1902 21.0963 21.8821 20.987 21.8821 20.987C21.8821 20.987 23.562 22.6772 25.1821 22.6174C26.8022 22.5576 26.7239 21.649 26.7135 21.55" fill="#DD2025"/>
<path d="M24.7026 2.14191V8.19844H30.5117L24.7026 2.14191Z" fill="#909090"/>
<path d="M24.782 2.0625V8.11903H30.591L24.782 2.0625Z" fill="#F4F4F4"/>
<path d="M9.25556 4.59628H7.90771V9.54628H8.97196V7.87772L9.20709 7.89113C9.43463 7.88799 9.66008 7.84722 9.87431 7.77047C10.0626 7.70652 10.2357 7.60436 10.3827 7.47038C10.5323 7.34364 10.6497 7.18317 10.7251 7.00219C10.8295 6.7018 10.8665 6.3821 10.8334 6.06581C10.8275 5.83982 10.7879 5.61597 10.7158 5.40169C10.6509 5.2468 10.5543 5.10718 10.4323 4.99176C10.3103 4.87633 10.1656 4.78765 10.0073 4.73138C9.8703 4.68036 9.72822 4.64406 9.5835 4.62309C9.47473 4.60538 9.36472 4.59642 9.25453 4.59628M9.05962 6.96197H8.96784V5.43572H9.1679C9.25574 5.42938 9.34389 5.44287 9.42582 5.47518C9.50775 5.50749 9.58137 5.55779 9.64125 5.62238C9.76532 5.78842 9.83161 5.99054 9.82996 6.19781C9.82996 6.4515 9.82997 6.68147 9.60103 6.84338C9.43614 6.9342 9.24837 6.97505 9.06065 6.96094M12.8453 4.58288C12.7309 4.58288 12.6195 4.59113 12.5411 4.59422L12.2988 4.60041H11.4944V9.55041H12.4411C12.8028 9.55971 13.1629 9.49841 13.5012 9.36994C13.7736 9.26237 14.0147 9.0883 14.2025 8.8636C14.3865 8.63791 14.5179 8.37404 14.5871 8.09119C14.6685 7.77142 14.708 7.44246 14.7047 7.11253C14.7249 6.72288 14.6947 6.33225 14.615 5.95031C14.5386 5.66949 14.3973 5.41056 14.2025 5.19441C14.0496 5.01962 13.8616 4.87906 13.6507 4.78191C13.4701 4.69817 13.28 4.63654 13.0846 4.59834C13.0069 4.58561 12.9282 4.57974 12.8495 4.58081M12.6618 8.64084H12.5587V5.48109H12.5721C12.7847 5.45651 12.9998 5.49488 13.1908 5.59144C13.3307 5.70315 13.4447 5.84389 13.5249 6.00394C13.6115 6.17238 13.6614 6.35725 13.6714 6.54638C13.6807 6.77325 13.6714 6.95888 13.6714 7.11253C13.6752 7.28952 13.6638 7.46652 13.6373 7.64156C13.6049 7.82107 13.5462 7.99481 13.4631 8.15719C13.3692 8.30862 13.2409 8.43581 13.0887 8.52844C12.9616 8.61094 12.8108 8.64935 12.6597 8.63775M17.8954 4.60041H15.3894V9.55041H16.4496V7.58691H17.7902V6.66703H16.4496V5.52028H17.8933V4.60041" fill="white"/>
</svg>
