<svg width="85" height="85" viewBox="0 0 85 85" fill="none" xmlns="http://www.w3.org/2000/svg">
<path d="M45.125 5.75V24.125C45.125 26.2136 45.9547 28.2166 47.4315 29.6935C48.9084 31.1703 50.9114 32 53 32H71.375V71.375C71.375 73.4636 70.5453 75.4666 69.0685 76.9435C67.5916 78.4203 65.5886 79.25 63.5 79.25H21.5C19.4114 79.25 17.4084 78.4203 15.9315 76.9435C14.4547 75.4666 13.625 73.4636 13.625 71.375V13.625C13.625 11.5364 14.4547 9.53338 15.9315 8.05653C17.4084 6.57969 19.4114 5.75 21.5 5.75H45.125ZM50.375 6.05713V24.125C50.375 24.8212 50.6516 25.4889 51.1438 25.9812C51.6361 26.4734 52.3038 26.75 53 26.75H71.0679C70.6995 25.4674 70.0112 24.2995 69.0676 23.3559L53.7691 8.06C52.8258 7.11549 51.6578 6.42629 50.375 6.05713Z" fill="#CBC8C8"/>
</svg>
