<svg width="47" height="47" viewBox="0 0 47 47" fill="none" xmlns="http://www.w3.org/2000/svg">
<path d="M5.875 23.5C5.875 21.1855 6.33088 18.8936 7.21662 16.7552C8.10236 14.6168 9.40061 12.6739 11.0372 11.0372C12.6739 9.40061 14.6168 8.10236 16.7552 7.21662C18.8936 6.33088 21.1855 5.875 23.5 5.875C25.8145 5.875 28.1064 6.33088 30.2448 7.21662C32.3832 8.10236 34.3261 9.40061 35.9628 11.0372C37.5994 12.6739 38.8976 14.6168 39.7834 16.7552C40.6691 18.8936 41.125 21.1855 41.125 23.5C41.125 28.1744 39.2681 32.6574 35.9628 35.9628C32.6574 39.2681 28.1744 41.125 23.5 41.125C18.8256 41.125 14.3426 39.2681 11.0372 35.9628C7.73191 32.6574 5.875 28.1744 5.875 23.5Z" fill="black" fill-opacity="0.25"/>
<path d="M23.5001 27.4167C27.8263 27.4167 31.3334 23.9096 31.3334 19.5833C31.3334 15.2571 27.8263 11.75 23.5001 11.75C19.1738 11.75 15.6667 15.2571 15.6667 19.5833C15.6667 23.9096 19.1738 27.4167 23.5001 27.4167Z" fill="#989898"/>
<path fill-rule="evenodd" clip-rule="evenodd" d="M35.6808 35.7318C35.7983 35.9217 35.7611 36.1626 35.6025 36.3134C32.3339 39.4087 28.0017 41.1311 23.5 41.125C18.9983 41.1311 14.6661 39.4087 11.3975 36.3134C11.3204 36.2397 11.2706 36.142 11.2564 36.0363C11.2422 35.9306 11.2643 35.8232 11.3192 35.7318C13.5948 31.9561 18.1949 29.375 23.5 29.375C28.8051 29.375 33.4033 31.9561 35.6808 35.7318Z" fill="#989898"/>
</svg>
